<?xml version="1.0" encoding="utf-8"?>
<!-- Generator: Adobe Illustrator 28.1.0, SVG Export Plug-In . SVG Version: 6.00 Build 0)  -->
<svg version="1.1" id="Livello_1" focusable="false"
	 xmlns="http://www.w3.org/2000/svg" xmlns:xlink="http://www.w3.org/1999/xlink" x="0px" y="0px" viewBox="0 0 275.8 18.1"
	 style="enable-background:new 0 0 275.8 18.1;" xml:space="preserve">
<style type="text/css">
	.st0{fill:#FFFFFF;stroke:#FFFFFF;stroke-width:1.393378e-02;stroke-miterlimit:10;}
	.st1{fill:#FFFFFF;stroke:#FFFFFF;stroke-width:6.964788e-03;stroke-miterlimit:7.07;}
</style>
<g transform="matrix(1 0 0 -1 0 0)">
	<g>
		<path id="E1-MJMATHI-78" class="st0" d="M0.7-8C0.8-7.6,1-7.2,1.5-6.6s1,0.8,1.6,0.8C3.4-5.9,3.7-6,4-6.1s0.5-0.4,0.6-0.6
			C5-6.2,5.5-5.9,6-5.9c0.3,0,0.6-0.1,0.9-0.3C7.2-6.4,7.3-6.7,7.3-7S7.2-7.5,7.1-7.7C7-7.8,6.8-7.9,6.7-8C6.6-8.1,6.5-8,6.4-8
			C6.2-8,6.1-8,6-7.9S5.8-7.6,5.8-7.5C5.8-7,6-6.7,6.5-6.6C6.4-6.5,6.2-6.4,5.9-6.4c-0.1,0-0.2,0-0.3,0C5.3-6.6,5.1-6.9,4.9-7.3
			c-0.6-2.1-0.8-3.3-0.8-3.6c0-0.3,0.1-0.4,0.2-0.6c0.1-0.1,0.3-0.2,0.5-0.2c0.3,0,0.7,0.2,1,0.5s0.6,0.7,0.7,1.1
			c0,0.1,0.1,0.1,0.1,0.2c0,0,0.1,0,0.2,0h0.1C7-9.9,7-9.9,7-10c0,0,0-0.1,0-0.2c-0.1-0.5-0.4-1-0.9-1.4c-0.4-0.4-0.9-0.6-1.5-0.6
			c-0.7,0-1.1,0.3-1.5,0.9c-0.4-0.6-0.8-0.9-1.3-0.9l0,0c-0.5,0-0.8,0.1-1,0.4S0.5-11.3,0.5-11s0.1,0.5,0.3,0.7
			C0.9-10.1,1.2-10,1.4-10C1.8-10,2-10.2,2-10.6c0-0.2-0.1-0.3-0.2-0.5c-0.1-0.1-0.2-0.2-0.3-0.3s-0.2-0.1-0.2-0.1l0,0
			c0,0,0,0,0.1-0.1c0.1,0,0.1-0.1,0.2-0.1s0.2-0.1,0.3,0c0.3,0,0.6,0.2,0.9,0.6C2.9-11,3-10.6,3.1-10.2c0.1,0.5,0.3,1,0.4,1.5
			c0.1,0.5,0.2,0.8,0.2,0.9c0,0.3,0.1,0.4,0.1,0.5c0,0.3-0.1,0.4-0.2,0.6C3.4-6.5,3.2-6.4,3-6.4c-0.4,0-0.7-0.1-1-0.4
			C1.7-7.1,1.4-7.5,1.3-8c0-0.1,0-0.1-0.1-0.1c0,0-0.1,0-0.2,0H0.8L0.7-8z"/>
	</g>
	<g>
		<path id="E1-MJMAIN-3D" class="st0" d="M12.6-7.2c0,0.1,0.1,0.2,0.2,0.3h8.9c0.1-0.1,0.2-0.2,0.2-0.3c0-0.1-0.1-0.2-0.2-0.3h-4.4
			h-4.4C12.7-7.4,12.6-7.3,12.6-7.2z M12.6-9.9c0,0.1,0.1,0.2,0.2,0.3h8.9c0.1-0.1,0.2-0.2,0.2-0.3s-0.1-0.2-0.2-0.3h-8.9
			C12.7-10.1,12.6-10,12.6-9.9z"/>
	</g>
	<g transform="translate(1906,0)">
		<g>
			<path id="E1-MJMATHI-41" class="st0" d="M-1876.5-11c0-0.2,0.2-0.4,0.6-0.4c0.2,0,0.3-0.1,0.3-0.2c0,0,0-0.1,0-0.2
				c0-0.1-0.1-0.2-0.1-0.3c0,0-0.1-0.1-0.2-0.1c0,0-0.1,0-0.2,0s-0.3,0-0.5,0s-0.5,0-0.9,0c-0.7,0-1.1,0-1.3,0h-0.1
				c-0.1,0.1-0.1,0.1-0.1,0.2c0,0.3,0.1,0.4,0.2,0.5h0.2c0.7,0,1.1,0.3,1.4,0.7c0.1,0.1,0.9,1.5,2.5,4.2s2.5,4.2,2.5,4.2
				c0.1,0.1,0.2,0.2,0.3,0.2h0.1h0.2c0.1-0.1,0.1-0.1,0.1-0.1l0.4-4.5c0.3-3,0.4-4.5,0.4-4.5c0-0.1,0.3-0.2,0.9-0.2
				c0.2,0,0.3,0,0.3-0.1c0,0,0-0.1,0-0.2c0-0.1-0.1-0.2-0.1-0.3c0,0-0.1,0-0.2-0.1c0,0-0.1,0-0.2,0s-0.3,0-0.5,0c-0.3,0-0.6,0-1,0
				c-0.9,0-1.4,0-1.7,0h-0.2c-0.1,0.1-0.1,0.1-0.1,0.1s0,0.1,0,0.3c0,0.1,0.1,0.2,0.1,0.2h0.1h0.3c0.5,0,0.8,0.1,0.9,0.2l-0.2,2.1
				h-3.3l-0.5-0.8C-1876.3-10.5-1876.5-10.9-1876.5-11z M-1872.2-8.4c0,0.1-0.1,0.8-0.2,2.2s-0.2,2-0.2,2l-0.4-0.6
				c-0.1-0.3-0.4-0.7-0.9-1.5l-1.3-2.1h1.4C-1872.7-8.4-1872.2-8.4-1872.2-8.4z"/>
		</g>
		<g transform="scale(0.707)">
			<path id="E1-MJMATHI-78_00000088811102042132939640000010468041794272198579_" class="st1" d="M-1868.5-11.3c0,0.3,0.2,0.6,0.5,1
				s0.7,0.5,1.1,0.6c0.2,0,0.4-0.1,0.6-0.2s0.3-0.3,0.4-0.4c0.3,0.4,0.6,0.6,1,0.6c0.2,0,0.5-0.1,0.6-0.2c0.2-0.1,0.3-0.3,0.3-0.6
				c0-0.2,0-0.3-0.1-0.5c-0.1-0.1-0.2-0.2-0.3-0.2c-0.1,0-0.2,0-0.2,0c-0.1,0-0.2,0-0.3,0.1c-0.1,0.1-0.1,0.2-0.1,0.3
				c0,0.3,0.2,0.5,0.5,0.6c-0.1,0.1-0.2,0.1-0.4,0.1c-0.1,0-0.1,0-0.2,0c-0.2-0.1-0.4-0.3-0.6-0.7c-0.4-1.5-0.6-2.3-0.6-2.5
				s0.1-0.3,0.2-0.4c0.1-0.1,0.2-0.1,0.3-0.1c0.2,0,0.5,0.1,0.7,0.3s0.4,0.5,0.5,0.8c0,0.1,0,0.1,0.1,0.1c0,0,0.1,0,0.2,0l0,0
				c0.1,0,0.1,0,0.1-0.1c0,0,0,0,0-0.1c-0.1-0.4-0.3-0.7-0.6-1s-0.7-0.4-1.1-0.4c-0.5,0-0.8,0.2-1,0.6c-0.3-0.4-0.6-0.6-0.9-0.6
				h-0.1c-0.3,0-0.6,0.1-0.7,0.3s-0.2,0.4-0.2,0.5c0,0.2,0.1,0.4,0.2,0.5s0.3,0.2,0.4,0.2c0.3,0,0.4-0.1,0.4-0.4
				c0-0.1,0-0.2-0.1-0.3s-0.2-0.2-0.2-0.2c-0.1,0-0.1,0-0.1,0l0,0c0,0,0,0,0.1,0c0,0,0.1,0,0.2-0.1s0.1,0,0.2,0
				c0.2,0,0.4,0.1,0.6,0.4c0.1,0.1,0.1,0.3,0.2,0.7c0.1,0.3,0.2,0.7,0.3,1.1c0.1,0.4,0.1,0.6,0.2,0.7c0,0.2,0,0.3,0,0.4
				c0,0.2,0,0.3-0.1,0.4c-0.1,0.1-0.2,0.1-0.3,0.1c-0.3,0-0.5-0.1-0.7-0.3s-0.4-0.5-0.5-0.8c0-0.1,0-0.1,0-0.1s-0.1,0-0.2,0h-0.1
				C-1868.4-11.3-1868.5-11.3-1868.5-11.3z"/>
		</g>
	</g>
	<g transform="translate(3328,0)">
		<g>
			<path id="E1-MJMAIN-73" class="st0" d="M-3277.5-7.6c0,0.4-0.1,0.7-0.4,1s-0.6,0.4-1.1,0.4c-0.3,0-0.6-0.1-0.9-0.2
				c-0.3-0.2-0.4-0.4-0.4-0.7c0,0,0-0.1,0-0.2s0.1-0.2,0.2-0.3c0.1-0.1,0.3-0.3,0.6-0.3c0.2,0,0.4-0.1,0.6-0.1
				c0.2,0,0.4-0.1,0.6-0.1c0.2,0,0.3-0.1,0.4-0.2c0.2-0.1,0.3-0.2,0.5-0.3s0.3-0.3,0.4-0.6c0.1-0.3,0.2-0.6,0.2-0.9
				c0-0.6-0.2-1-0.5-1.4c-0.4-0.4-0.9-0.6-1.7-0.6h-0.1c-0.5,0-0.9,0.2-1.3,0.5l-0.1-0.1l-0.1-0.1c-0.1-0.1-0.1-0.1-0.2-0.2
				l-0.2-0.1h-0.1h-0.1c0,0-0.1,0-0.1,0.1v1.1v0.8c0,0.2,0,0.3,0,0.3l0.1,0.1h0.1c0.1,0,0.2,0,0.2-0.1c0,0,0.1-0.1,0.1-0.2
				s0-0.2,0.1-0.4s0.1-0.4,0.3-0.6c0.3-0.5,0.8-0.7,1.4-0.7c0.9,0,1.4,0.4,1.4,1.1c0,0.3-0.1,0.5-0.3,0.7s-0.6,0.4-1.2,0.5
				c-0.6,0.1-1,0.2-1.2,0.3c-0.3,0.2-0.6,0.4-0.8,0.6c-0.2,0.3-0.3,0.6-0.3,0.9c0,0.4,0.1,0.7,0.2,0.9c0.2,0.3,0.4,0.4,0.6,0.6
				c0.2,0.1,0.5,0.2,0.7,0.3c0.2,0,0.4,0.1,0.6,0.1h0.2c0.4,0,0.7-0.1,1-0.2l0.2-0.1l0.1,0.1c0.1,0.1,0.2,0.2,0.3,0.2h0.1h0.1
				c0,0,0.1,0,0.1-0.1v-1.8l-0.1-0.1h-0.4C-3277.5-7.7-3277.5-7.7-3277.5-7.6z"/>
		</g>
		<g>
			<path id="E1-MJMAIN-69" class="st0" d="M-3275.2-3.5c0,0.3,0.1,0.5,0.3,0.6s0.4,0.2,0.6,0.2c0.2,0,0.4-0.1,0.6-0.2
				c0.2-0.1,0.2-0.3,0.2-0.6s-0.1-0.5-0.2-0.6c-0.2-0.1-0.4-0.2-0.6-0.2c-0.2,0-0.4,0.1-0.6,0.2S-3275.1-3.8-3275.2-3.5z
				 M-3272.7-12c-0.1,0-0.6,0-1.4,0c-0.1,0-0.3,0-0.5,0s-0.5,0-0.7,0h-0.3h-0.1v0.6h0.2c0.3,0,0.5,0,0.7,0c0.1,0,0.1,0.1,0.2,0.2
				c0,0.1,0,0.3,0,0.6v1.4V-8c0,0.5,0,0.8,0,0.9s-0.1,0.2-0.2,0.3c-0.1,0.1-0.3,0.1-0.7,0.1h-0.2v0.3c0,0.2,0,0.3,0,0.3h0.1
				c0.1,0,0.2,0,0.4,0s0.3,0,0.5,0s0.3,0,0.5,0s0.3,0,0.4,0c0.1,0,0.1,0,0.2,0l0,0v-5.3c0-0.1,0.1-0.1,0.2-0.2c0.1,0,0.2,0,0.5-0.1
				h0.3L-3272.7-12L-3272.7-12z"/>
		</g>
		<g>
			<path id="E1-MJMAIN-6E" class="st0" d="M-3271.7-11.4h0.2c0.4,0,0.6,0.1,0.7,0.2v0.1c0,0.1,0,0.2,0,0.3s0,0.3,0,0.4s0,0.3,0,0.5
				s0,0.4,0,0.6c0,0.3,0,0.6,0,0.9c0,0.3,0,0.6,0,0.8v0.3c0,0.2-0.1,0.3-0.2,0.3c-0.1,0.1-0.3,0.1-0.6,0.1h-0.3v0.3
				c0,0.2,0,0.3,0,0.3h0.1c0.1,0,0.2,0,0.4,0s0.3,0,0.5,0s0.3,0,0.5,0s0.3,0,0.4,0c0.1,0,0.1,0,0.2,0l0,0v-0.6c0-0.4,0-0.5,0-0.5
				s0,0,0.1,0.1c0,0,0.1,0.1,0.2,0.2s0.2,0.2,0.3,0.3c0.1,0.1,0.2,0.2,0.4,0.3c0.2,0.1,0.3,0.2,0.5,0.2s0.4,0.1,0.7,0.1
				c1.1,0,1.6-0.6,1.8-1.6c0-0.1,0-0.7,0-1.9v-1.2c0-0.4,0-0.6,0-0.6s0.1-0.1,0.2-0.1c0.2,0,0.4,0,0.7,0h0.2V-12h-0.1h-0.3
				c-0.2,0-0.4,0-0.7,0s-0.4,0-0.5,0c-1,0-1.5,0-1.6,0h-0.1v0.6h0.2c0.6,0,0.8,0.1,0.8,0.2c0,0,0,0.7,0,1.9c0,1.3,0,1.9,0,2
				c-0.1,0.3-0.1,0.5-0.3,0.6c-0.1,0.1-0.2,0.2-0.3,0.2s-0.2,0-0.4,0c-0.4,0-0.8-0.2-1.1-0.5s-0.4-0.5-0.5-0.8
				c-0.1-0.3-0.1-0.6-0.1-1.2v-0.9v-0.8c0-0.3,0-0.5,0-0.6s0-0.2,0-0.2l0.1-0.1c0.2,0,0.4,0,0.7,0h0.2V-12h-0.1h-0.3
				c-0.2,0-0.5,0-0.7,0c-0.3,0-0.4,0-0.5,0c-1,0-1.5,0-1.6,0h-0.1v0.6H-3271.7z"/>
		</g>
	</g>
	<g>
		<path id="E1-MJMAIN-28" class="st0" d="M64.8-8.5c0,0.6,0,1.2,0.1,1.8s0.2,1.1,0.3,1.5s0.3,0.8,0.5,1.2s0.4,0.7,0.5,0.9
			s0.3,0.5,0.6,0.7c0.3,0.3,0.4,0.4,0.5,0.5c0,0.1,0.2,0.2,0.3,0.3h0.2H68c0.1,0,0.2,0,0.2-0.1c0,0-0.1-0.1-0.2-0.3
			c-0.2-0.2-0.3-0.4-0.6-0.7s-0.5-0.7-0.7-1.2S66.3-5,66.1-5.8s-0.2-1.7-0.2-2.7s0.1-1.9,0.2-2.7c0.2-0.8,0.3-1.4,0.6-1.9
			c0.2-0.5,0.5-0.9,0.7-1.2s0.4-0.6,0.6-0.7c0.2-0.2,0.2-0.3,0.2-0.3c0-0.1-0.1-0.1-0.2-0.1l0,0h-0.2l-0.4,0.3
			c-0.9,0.8-1.5,1.8-1.9,3C65-11,64.8-9.8,64.8-8.5z"/>
	</g>
	<g transform="translate(4947,0)">
		<g>
			<path id="E1-MJMATHI-3C9" class="st0" d="M-4871.2-6.7c0,0.2,0.1,0.4,0.3,0.6c0.2,0.2,0.4,0.3,0.6,0.3s0.3-0.1,0.5-0.3
				c0.1-0.2,0.2-0.5,0.2-0.8s-0.1-0.7-0.2-1.2s-0.3-1.1-0.5-1.7c-0.2-0.6-0.6-1.2-1-1.6s-0.9-0.7-1.5-0.7c-0.7,0-1.3,0.4-1.5,1.1
				c0,0,0,0-0.1-0.1c-0.5-0.7-1.2-1-1.9-1c-1,0-1.5,0.7-1.5,2.1c0,0.8,0.2,1.7,0.6,2.6s0.7,1.4,0.9,1.5c0.1,0.1,0.2,0.1,0.3,0
				c0.1-0.1,0.2-0.1,0.2-0.3c0-0.1-0.1-0.3-0.3-0.5c-0.2-0.3-0.4-0.6-0.6-1s-0.4-0.9-0.4-1.4c0-0.1,0-0.2,0-0.3c0-0.6,0.1-1,0.3-1.2
				c0.2-0.2,0.5-0.3,0.8-0.3c0.5,0,1,0.2,1.4,0.7l0.1,0.1v0.3c0,1.3,0.3,2,0.9,2c0.3,0,0.4-0.2,0.4-0.5c0-0.2,0-0.4-0.1-0.7
				s-0.2-0.5-0.3-0.8l-0.1-0.3c0,0,0,0,0-0.1c0,0,0-0.1,0.1-0.2c0.1-0.1,0.1-0.2,0.2-0.3s0.2-0.1,0.3-0.2c0.1-0.1,0.3-0.1,0.5-0.1
				c0.6,0,1.1,0.3,1.5,1s0.6,1.3,0.6,1.8c0,0.3-0.1,0.5-0.2,0.7s-0.2,0.3-0.3,0.4S-4871.1-6.8-4871.2-6.7z"/>
		</g>
		<g transform="scale(0.707)">
			<path id="E1-MJMATHI-78_00000180330263063506138280000000814088567651860629_" class="st1" d="M-4868.9-11.3c0,0.3,0.2,0.6,0.5,1
				s0.7,0.5,1.1,0.6c0.2,0,0.4-0.1,0.6-0.2s0.3-0.3,0.4-0.4c0.3,0.4,0.6,0.6,1,0.6c0.2,0,0.5-0.1,0.6-0.2c0.2-0.1,0.3-0.3,0.3-0.6
				c0-0.2,0-0.3-0.1-0.5c-0.1-0.1-0.2-0.2-0.3-0.2c-0.1,0-0.2,0-0.2,0c-0.1,0-0.2,0-0.3,0.1c-0.1,0.1-0.1,0.2-0.1,0.3
				c0,0.3,0.2,0.5,0.5,0.6c-0.1,0.1-0.2,0.1-0.4,0.1c-0.1,0-0.1,0-0.2,0c-0.2-0.1-0.4-0.3-0.6-0.7c-0.4-1.5-0.6-2.3-0.6-2.5
				s0.1-0.3,0.2-0.4c0.1-0.1,0.2-0.1,0.3-0.1c0.2,0,0.5,0.1,0.7,0.3s0.4,0.5,0.5,0.8c0,0.1,0,0.1,0.1,0.1c0,0,0.1,0,0.2,0l0,0
				c0.1,0,0.1,0,0.1-0.1c0,0,0,0,0-0.1c-0.1-0.4-0.3-0.7-0.6-1s-0.7-0.4-1.1-0.4c-0.5,0-0.8,0.2-1,0.6c-0.3-0.4-0.6-0.6-0.9-0.6
				h-0.1c-0.3,0-0.6,0.1-0.7,0.3s-0.2,0.4-0.2,0.5c0,0.2,0.1,0.4,0.2,0.5s0.3,0.2,0.4,0.2c0.3,0,0.4-0.1,0.4-0.4
				c0-0.1,0-0.2-0.1-0.3s-0.2-0.2-0.2-0.2c-0.1,0-0.1,0-0.1,0l0,0c0,0,0,0,0.1,0c0,0,0.1,0,0.2-0.1c0.1,0,0.1,0,0.2,0
				c0.2,0,0.4,0.1,0.6,0.4c0.1,0.1,0.1,0.3,0.2,0.7s0.2,0.7,0.3,1.1c0.1,0.4,0.1,0.6,0.2,0.7c0,0.2,0,0.3,0,0.4c0,0.2,0,0.3-0.1,0.4
				s-0.2,0.1-0.3,0.1c-0.3,0-0.5-0.1-0.7-0.3s-0.4-0.5-0.5-0.8c0-0.1,0-0.1,0-0.1s-0.1,0-0.2,0h-0.1
				C-4868.9-11.3-4868.9-11.3-4868.9-11.3z"/>
		</g>
	</g>
	<g>
		<path id="E1-MJMATHI-74" class="st0" d="M85-6.7C84.9-6.6,84.9-6.6,85-6.7c-0.1,0.1-0.1,0.2-0.1,0.3S85-6.1,85-6.1L85.1-6
			c0.1,0,0.3,0,0.7,0h0.7l0.3,1.1c0,0.1,0.1,0.2,0.1,0.4c0,0.2,0.1,0.3,0.1,0.4s0.1,0.2,0.1,0.3s0.1,0.2,0.1,0.2s0.1,0.1,0.1,0.2
			c0,0.1,0.1,0.1,0.2,0.1s0.2,0,0.3,0c0.2,0,0.3-0.1,0.3-0.2c0.1-0.1,0.1-0.2,0.1-0.3s0-0.3-0.1-0.7s-0.2-0.7-0.3-1.1L87.7-6
			c0,0,0.2,0,0.7,0h0.7c0.1-0.1,0.1-0.1,0.1-0.2c0-0.2-0.1-0.4-0.2-0.5h-1.5l-0.5-2c-0.4-1.5-0.5-2.3-0.5-2.4c0-0.4,0.1-0.6,0.4-0.6
			s0.6,0.2,0.9,0.5s0.6,0.7,0.7,1.2c0,0.1,0,0.1,0.1,0.1c0,0,0.1,0,0.2,0h0.1c0.1,0,0.2,0,0.2-0.1c0,0,0-0.1,0-0.2
			c0-0.1-0.1-0.3-0.3-0.5s-0.3-0.4-0.5-0.7c-0.2-0.2-0.4-0.4-0.7-0.6c-0.3-0.2-0.6-0.2-0.8-0.2c-0.3,0-0.5,0.1-0.8,0.2
			c-0.3,0.1-0.4,0.4-0.5,0.7c0,0.1,0,0.2,0,0.4v0.3l0.5,2c0.3,1.3,0.5,2,0.5,2s-0.2,0-0.7,0L85-6.7L85-6.7z"/>
	</g>
	<g>
		<path id="E1-MJMAIN-2B" class="st0" d="M93.6-8.7c0,0,0,0.1,0,0.2c0,0.1,0.1,0.2,0.2,0.3H98v2.1V-4c0,0,0.1,0.1,0.2,0.1
			s0.2-0.1,0.3-0.2v-4.2h4.2c0.1-0.1,0.2-0.2,0.2-0.3s-0.1-0.2-0.2-0.3h-4.2V-13c-0.1-0.1-0.2-0.2-0.3-0.2l0,0l0,0
			c-0.1,0-0.2,0.1-0.3,0.2v4.2h-4.2c-0.1,0.1-0.2,0.2-0.2,0.3L93.6-8.7L93.6-8.7z"/>
	</g>
	<g transform="translate(7659,0)">
		<g>
			<path id="E1-MJMATHI-3D5" class="st0" d="M-7546.6-2.4c0,0.1,0.1,0.1,0.2,0.1h0.1h0.2c0.1-0.1,0.1-0.1,0.1-0.1
				c0-0.1-0.1-0.6-0.4-1.7c-0.1-0.3-0.1-0.5-0.2-0.8s-0.1-0.5-0.2-0.6l-0.1-0.2c0,0,0,0,0.1,0s0.2,0,0.4-0.1
				c0.2-0.1,0.4-0.1,0.7-0.2c0.4-0.2,0.7-0.5,1-0.8c0.3-0.4,0.4-0.8,0.4-1.4s-0.1-1-0.4-1.5s-0.6-0.9-1.1-1.2s-0.9-0.6-1.4-0.8
				s-0.9-0.3-1.3-0.3h-0.1l-0.3-1.3c-0.1-0.2-0.1-0.5-0.2-0.8s-0.1-0.5-0.2-0.5c0-0.1-0.1-0.1-0.2-0.1h-0.1c-0.2,0-0.3,0-0.3,0.1
				c0,0,0.1,0.5,0.3,1.3l0.3,1.3c0,0,0,0-0.1,0c0,0-0.1,0-0.3,0c-0.1,0-0.3,0.1-0.6,0.2c-0.3,0.1-0.5,0.3-0.8,0.4
				c-0.2,0.2-0.4,0.4-0.6,0.7s-0.3,0.7-0.3,1.1c0,0.6,0.2,1.1,0.5,1.6s0.7,0.9,1.1,1.2c0.4,0.3,0.9,0.5,1.4,0.7s0.9,0.3,1.2,0.3
				c0,0,0.1,0,0.1,0.1l0.4,1.7C-7546.7-3-7546.6-2.5-7546.6-2.4z M-7550.6-9.9c0-0.3,0.1-0.6,0.2-0.8s0.3-0.4,0.5-0.5
				s0.4-0.2,0.5-0.3c0.1,0,0.3-0.1,0.5-0.1h0.1l1.3,5.3c0,0-0.1,0-0.2,0s-0.2,0-0.4-0.1c-0.2-0.1-0.4-0.1-0.6-0.2s-0.4-0.2-0.6-0.4
				c-0.2-0.2-0.4-0.4-0.6-0.6c-0.2-0.3-0.3-0.6-0.5-0.9C-7550.5-9.2-7550.6-9.6-7550.6-9.9z M-7545.3-8.1c0,0.4-0.1,0.7-0.2,0.9
				s-0.3,0.4-0.6,0.5c-0.2,0.1-0.4,0.2-0.5,0.2s-0.3,0.1-0.3,0.1l0,0l-0.6-2.6l-0.7-2.6l0,0c0.1,0,0.2,0,0.4,0.1
				c0.2,0.1,0.4,0.1,0.6,0.2c0.4,0.2,0.7,0.4,1,0.7s0.5,0.6,0.6,1s0.2,0.6,0.3,0.9C-7545.3-8.5-7545.3-8.3-7545.3-8.1z"/>
		</g>
		<g transform="scale(0.707)">
			<path id="E1-MJMATHI-78_00000001621831440691666840000016500218846311518859_" class="st1" d="M-7543.4-11.3c0,0.3,0.2,0.6,0.5,1
				s0.7,0.5,1.1,0.6c0.2,0,0.4-0.1,0.6-0.2s0.3-0.3,0.4-0.4c0.3,0.4,0.6,0.6,1,0.6c0.2,0,0.5-0.1,0.6-0.2c0.2-0.1,0.3-0.3,0.3-0.6
				c0-0.2,0-0.3-0.1-0.5c-0.1-0.1-0.2-0.2-0.3-0.2c-0.1,0-0.2,0-0.2,0c-0.1,0-0.2,0-0.3,0.1c-0.1,0.1-0.1,0.2-0.1,0.3
				c0,0.3,0.2,0.5,0.5,0.6c-0.1,0.1-0.2,0.1-0.4,0.1c-0.1,0-0.1,0-0.2,0c-0.2-0.1-0.4-0.3-0.6-0.7c-0.4-1.5-0.6-2.3-0.6-2.5
				s0.1-0.3,0.2-0.4c0.1-0.1,0.2-0.1,0.3-0.1c0.2,0,0.5,0.1,0.7,0.3s0.4,0.5,0.5,0.8c0,0.1,0,0.1,0.1,0.1c0,0,0.1,0,0.2,0l0,0
				c0.1,0,0.1,0,0.1-0.1c0,0,0,0,0-0.1c-0.1-0.4-0.3-0.7-0.6-1s-0.7-0.4-1.1-0.4c-0.5,0-0.8,0.2-1,0.6c-0.3-0.4-0.6-0.6-0.9-0.6
				h-0.1c-0.3,0-0.6,0.1-0.7,0.3s-0.2,0.4-0.2,0.5c0,0.2,0.1,0.4,0.2,0.5s0.3,0.2,0.4,0.2c0.3,0,0.4-0.1,0.4-0.4
				c0-0.1,0-0.2-0.1-0.3s-0.2-0.2-0.2-0.2c-0.1,0-0.1,0-0.1,0l0,0c0,0,0,0,0.1,0c0,0,0.1,0,0.2-0.1c0.1,0,0.1,0,0.2,0
				c0.2,0,0.4,0.1,0.6,0.4c0.1,0.1,0.1,0.3,0.2,0.7s0.2,0.7,0.3,1.1c0.1,0.4,0.1,0.6,0.2,0.7c0,0.2,0,0.3,0,0.4c0,0.2,0,0.3-0.1,0.4
				s-0.2,0.1-0.3,0.1c-0.3,0-0.5-0.1-0.7-0.3s-0.4-0.5-0.5-0.8c0-0.1,0-0.1,0-0.1s-0.1,0-0.2,0h-0.1
				C-7543.4-11.3-7543.4-11.3-7543.4-11.3z"/>
		</g>
	</g>
	<g>
		<path id="E1-MJMAIN-29" class="st0" d="M122.9-1.6L122.9-1.6c0.1,0,0.1,0,0.2,0h0.2l0.4-0.3c0.9-0.8,1.5-1.8,1.9-3
			s0.6-2.4,0.6-3.7c0-0.6,0-1.2-0.1-1.8s-0.2-1.1-0.3-1.5c-0.1-0.4-0.3-0.8-0.5-1.2s-0.4-0.7-0.5-0.9s-0.3-0.5-0.6-0.7
			s-0.4-0.4-0.4-0.5s-0.2-0.1-0.3-0.3c0,0,0,0-0.1-0.1h-0.2c-0.1,0-0.1,0-0.2,0h-0.1v0.1c0,0,0.1,0.1,0.2,0.2
			c1.4,1.5,2.2,3.7,2.2,6.6s-0.7,5.1-2.2,6.6C123-2,123-1.9,122.9-1.9C122.8-1.7,122.9-1.6,122.9-1.6z"/>
	</g>
	<g>
		<path id="E1-MJMAIN-2C" class="st0" d="M128.6-11.5c0,0,0,0.1,0,0.3s0.1,0.4,0.2,0.6c0.1,0.2,0.3,0.3,0.6,0.3s0.5-0.1,0.7-0.3
			s0.3-0.6,0.3-1.2c0-0.3,0-0.6-0.1-0.9s-0.2-0.6-0.3-0.8s-0.2-0.4-0.4-0.6c-0.1-0.2-0.2-0.3-0.3-0.4c-0.1-0.1-0.2-0.1-0.2-0.1
			s-0.1,0-0.2,0.1c-0.1,0.1-0.1,0.1-0.1,0.2c0,0,0.1,0.1,0.2,0.2c0.1,0.1,0.2,0.3,0.3,0.4c0.1,0.2,0.3,0.4,0.4,0.7
			c0.1,0.3,0.2,0.6,0.2,1v0.2l0,0c0,0,0,0-0.1,0h-0.1h-0.1c0,0-0.1,0-0.2,0c-0.3,0-0.5,0.1-0.6,0.2L128.6-11.5z"/>
	</g>
	<g>
		<path id="E1-MJMATHI-79" class="st0" d="M147.9-8c0,0.1,0.1,0.4,0.2,0.7c0.1,0.3,0.4,0.6,0.7,1c0.3,0.3,0.7,0.5,1,0.5
			c0.4,0,0.7-0.1,0.9-0.3c0.2-0.2,0.4-0.5,0.4-0.9c0-0.2,0-0.3,0-0.3s-0.1-0.2-0.2-0.6c-0.1-0.4-0.3-0.8-0.5-1.4
			c-0.2-0.5-0.2-0.9-0.2-1.2c0-0.4,0.1-0.7,0.2-0.8s0.3-0.2,0.6-0.3c0.2,0,0.4,0.1,0.6,0.2c0.2,0.1,0.3,0.2,0.4,0.3
			c0.1,0.1,0.2,0.3,0.4,0.5c0,0,0,0.1,0.1,0.3s0.1,0.5,0.2,0.8s0.2,0.7,0.3,1c0.4,1.4,0.5,2.1,0.6,2.2c0.1,0.3,0.3,0.4,0.6,0.4
			c0.1,0,0.2,0,0.3-0.1s0.1-0.1,0.2-0.2v-0.1c0-0.1-0.2-1.1-0.7-2.9s-0.7-2.8-0.8-3c-0.3-0.8-0.7-1.4-1.4-1.8
			c-0.6-0.5-1.3-0.7-1.9-0.7c-0.4,0-0.8,0.1-1.1,0.3s-0.5,0.5-0.5,0.9c0,0.2,0,0.4,0.1,0.5s0.2,0.2,0.3,0.3s0.2,0.1,0.3,0.1
			s0.2,0,0.2,0c0.4,0,0.6-0.2,0.6-0.6c0-0.2-0.1-0.3-0.2-0.5s-0.2-0.2-0.3-0.3c-0.1,0-0.2-0.1-0.2-0.1l0,0c0,0,0.1-0.1,0.3-0.2
			s0.3-0.1,0.5-0.1h0.1c0.2,0,0.3,0,0.4,0c0.3,0.1,0.6,0.3,0.8,0.5s0.5,0.6,0.6,0.9s0.2,0.6,0.3,0.8s0.1,0.4,0.1,0.4l-0.1-0.1
			c-0.1,0-0.1-0.1-0.3-0.2s-0.2-0.1-0.4-0.2c-0.2,0-0.4-0.1-0.5-0.1c-0.4,0-0.8,0.1-1.1,0.3s-0.5,0.5-0.6,1c0,0.1,0,0.2,0,0.4
			c0,0.5,0.2,1.2,0.5,2.1s0.5,1.4,0.5,1.6l0,0c0,0.1,0,0.1,0,0.2c0,0,0,0.1-0.1,0.1s-0.1,0.1-0.2,0.1h-0.1c-0.2,0-0.4-0.1-0.6-0.3
			s-0.3-0.4-0.4-0.6c-0.1-0.2-0.2-0.4-0.2-0.6c-0.1-0.2-0.1-0.3-0.1-0.3s-0.1,0-0.2,0H148C148-8.1,147.9-8.1,147.9-8z"/>
	</g>
	<g>
		<path id="E1-MJMAIN-3D_00000126309369466332781090000005071983703176876451_" class="st0" d="M159.2-7.2c0,0.1,0.1,0.2,0.2,0.3
			h8.9c0.1-0.1,0.2-0.2,0.2-0.3c0-0.1-0.1-0.2-0.2-0.3h-4.4h-4.4C159.3-7.4,159.2-7.3,159.2-7.2z M159.2-9.9c0,0.1,0.1,0.2,0.2,0.3
			h8.9c0.1-0.1,0.2-0.2,0.2-0.3s-0.1-0.2-0.2-0.3h-8.9C159.3-10.1,159.2-10,159.2-9.9z"/>
	</g>
	<g transform="translate(12426,0)">
		<g>
			<path id="E1-MJMATHI-41_00000078766001708494108620000000161466526311159697_" class="st0" d="M-12249.9-11
				c0-0.2,0.2-0.4,0.6-0.4c0.2,0,0.3-0.1,0.3-0.2c0,0,0-0.1,0-0.2c0-0.1-0.1-0.2-0.1-0.3c0,0-0.1-0.1-0.2-0.1c0,0-0.1,0-0.2,0
				s-0.3,0-0.5,0s-0.5,0-0.9,0c-0.7,0-1.1,0-1.3,0h-0.1c-0.1,0.1-0.1,0.1-0.1,0.2c0,0.3,0.1,0.4,0.2,0.5h0.2c0.7,0,1.1,0.3,1.4,0.7
				c0.1,0.1,0.9,1.5,2.5,4.2c1.6,2.8,2.5,4.2,2.5,4.2c0.1,0.1,0.2,0.2,0.3,0.2h0.1h0.2c0.1-0.1,0.1-0.1,0.1-0.1l0.4-4.5
				c0.3-3,0.4-4.5,0.4-4.5c0-0.1,0.3-0.2,0.9-0.2c0.2,0,0.3,0,0.3-0.1c0,0,0-0.1,0-0.2c0-0.1-0.1-0.2-0.1-0.3c0,0-0.1,0-0.2-0.1
				c0,0-0.1,0-0.2,0c-0.1,0-0.3,0-0.5,0c-0.3,0-0.6,0-1,0c-0.9,0-1.4,0-1.7,0h-0.2c-0.1,0.1-0.1,0.1-0.1,0.1s0,0.1,0,0.3
				c0,0.1,0.1,0.2,0.1,0.2h0.1h0.3c0.5,0,0.8,0.1,0.9,0.2l-0.2,2.1h-3.3l-0.5-0.8C-12249.8-10.5-12249.9-10.9-12249.9-11z
				 M-12245.7-8.4c0,0.1-0.1,0.8-0.2,2.2s-0.2,2-0.2,2l-0.4-0.6c-0.1-0.3-0.4-0.7-0.9-1.5l-1.3-2.1h1.4
				C-12246.1-8.4-12245.7-8.4-12245.7-8.4z"/>
		</g>
		<g transform="scale(0.707)">
			<path id="E1-MJMATHI-79_00000167377041051942688180000015863355831448234429_" class="st1" d="M-12242.2-11.3
				c0,0.1,0,0.2,0.1,0.5s0.3,0.5,0.5,0.7s0.5,0.4,0.7,0.4c0.3,0,0.5-0.1,0.7-0.2s0.2-0.4,0.3-0.6c0-0.1,0-0.2,0-0.2
				s-0.1-0.2-0.2-0.5c-0.1-0.3-0.2-0.6-0.3-1s-0.2-0.6-0.2-0.8c0-0.3,0-0.5,0.1-0.6s0.2-0.2,0.4-0.2s0.3,0,0.4,0.1
				c0.1,0.1,0.2,0.1,0.3,0.2c0.1,0.1,0.2,0.2,0.3,0.3c0,0,0,0.1,0,0.2c0,0.1,0.1,0.3,0.1,0.6c0.1,0.3,0.1,0.5,0.2,0.7
				c0.2,1,0.4,1.5,0.4,1.5c0.1,0.2,0.2,0.3,0.4,0.3c0.1,0,0.2,0,0.2-0.1s0.1-0.1,0.1-0.1v-0.1c0-0.1-0.2-0.8-0.5-2.1s-0.5-2-0.6-2.1
				c-0.2-0.5-0.5-1-1-1.3s-0.9-0.5-1.4-0.5c-0.3,0-0.6,0.1-0.8,0.2s-0.3,0.4-0.3,0.7c0,0.1,0,0.3,0.1,0.4s0.1,0.2,0.2,0.2
				c0.1,0,0.1,0.1,0.2,0.1c0.1,0,0.1,0,0.2,0c0.3,0,0.4-0.1,0.4-0.4c0-0.1,0-0.2-0.1-0.3s-0.2-0.2-0.2-0.2h-0.1l0,0
				c0,0,0.1-0.1,0.2-0.1s0.2-0.1,0.3-0.1h0.1c0.1,0,0.2,0,0.3,0c0.2,0.1,0.4,0.2,0.6,0.4c0.2,0.2,0.3,0.4,0.4,0.6s0.2,0.4,0.2,0.6
				s0.1,0.2,0.1,0.3h-0.1c0,0-0.1-0.1-0.2-0.1c-0.1,0-0.2-0.1-0.3-0.1s-0.3,0-0.4,0c-0.3,0-0.6,0.1-0.8,0.2
				c-0.2,0.1-0.4,0.4-0.5,0.7c0,0,0,0.1,0,0.3c0,0.4,0.1,0.9,0.3,1.5s0.3,1,0.3,1.2l0,0c0,0.1,0,0.1,0,0.1s0,0,0,0.1s-0.1,0-0.1,0
				l0,0c-0.2,0-0.3-0.1-0.4-0.2c-0.1-0.1-0.2-0.3-0.3-0.4c-0.1-0.1-0.1-0.3-0.2-0.4c0-0.1-0.1-0.2-0.1-0.2s-0.1,0-0.2,0
				L-12242.2-11.3L-12242.2-11.3z"/>
		</g>
	</g>
	<g transform="translate(13795,0)">
		<g>
			<path id="E1-MJMAIN-73_00000059997241198052732400000005789804588270690749_" class="st0" d="M-13598.7-7.6c0,0.4-0.1,0.7-0.4,1
				c-0.3,0.3-0.6,0.4-1.1,0.4c-0.3,0-0.6-0.1-0.9-0.2c-0.3-0.2-0.4-0.4-0.4-0.7c0,0,0-0.1,0-0.2s0.1-0.2,0.2-0.3
				c0.1-0.1,0.3-0.3,0.6-0.3c0.2,0,0.4-0.1,0.6-0.1c0.2,0,0.4-0.1,0.6-0.1c0.2,0,0.3-0.1,0.4-0.2c0.2-0.1,0.3-0.2,0.5-0.3
				s0.3-0.3,0.4-0.6c0.1-0.3,0.2-0.6,0.2-0.9c0-0.6-0.2-1-0.5-1.4c-0.4-0.4-0.9-0.6-1.7-0.6h-0.1c-0.5,0-0.9,0.2-1.3,0.5l-0.1-0.1
				l-0.1-0.1c-0.1-0.1-0.1-0.1-0.2-0.2l-0.2-0.1h-0.1h-0.1c0,0-0.1,0-0.1,0.1v1.1v0.8c0,0.2,0,0.3,0,0.3l0.1,0.1h0.1
				c0.1,0,0.2,0,0.2-0.1c0,0,0.1-0.1,0.1-0.2c0-0.1,0-0.2,0.1-0.4s0.1-0.4,0.3-0.6c0.3-0.5,0.8-0.7,1.4-0.7c0.9,0,1.4,0.4,1.4,1.1
				c0,0.3-0.1,0.5-0.3,0.7s-0.6,0.4-1.2,0.5s-1,0.2-1.2,0.3c-0.3,0.2-0.6,0.4-0.8,0.6c-0.2,0.3-0.3,0.6-0.3,0.9
				c0,0.4,0.1,0.7,0.2,0.9c0.2,0.3,0.4,0.4,0.6,0.6c0.2,0.1,0.5,0.2,0.7,0.3c0.2,0,0.4,0.1,0.6,0.1h0.2c0.4,0,0.7-0.1,1-0.2l0.2-0.1
				l0.1,0.1c0.1,0.1,0.2,0.2,0.3,0.2h0.1h0.1c0,0,0.1,0,0.1-0.1v-1.8l-0.1-0.1h-0.4C-13598.6-7.7-13598.7-7.7-13598.7-7.6z"/>
		</g>
		<g>
			<path id="E1-MJMAIN-69_00000069397386759350117820000000268813822438838174_" class="st0" d="M-13596.3-3.5
				c0,0.3,0.1,0.5,0.3,0.6s0.4,0.2,0.6,0.2c0.2,0,0.4-0.1,0.6-0.2c0.2-0.1,0.2-0.3,0.2-0.6s-0.1-0.5-0.2-0.6
				c-0.2-0.1-0.4-0.2-0.6-0.2s-0.4,0.1-0.6,0.2C-13596.2-4-13596.3-3.8-13596.3-3.5z M-13593.8-12c-0.1,0-0.6,0-1.4,0
				c-0.1,0-0.3,0-0.5,0s-0.5,0-0.7,0h-0.3h-0.1v0.6h0.2c0.3,0,0.5,0,0.7,0c0.1,0,0.1,0.1,0.2,0.2s0,0.3,0,0.6v1.4V-8
				c0,0.5,0,0.8,0,0.9s-0.1,0.2-0.2,0.3c-0.1,0.1-0.3,0.1-0.7,0.1h-0.2v0.3c0,0.2,0,0.3,0,0.3h0.1c0.1,0,0.2,0,0.4,0s0.3,0,0.5,0
				s0.3,0,0.5,0s0.3,0,0.4,0s0.1,0,0.2,0l0,0v-5.3c0-0.1,0.1-0.1,0.2-0.2c0.1,0,0.2,0,0.5-0.1h0.3V-12H-13593.8z"/>
		</g>
		<g>
			<path id="E1-MJMAIN-6E_00000061457397926569396370000016669890784416288930_" class="st0" d="M-13592.8-11.4h0.2
				c0.4,0,0.6,0.1,0.7,0.2v0.1c0,0.1,0,0.2,0,0.3s0,0.3,0,0.4s0,0.3,0,0.5s0,0.4,0,0.6c0,0.3,0,0.6,0,0.9c0,0.3,0,0.6,0,0.8v0.3
				c0,0.2-0.1,0.3-0.2,0.3s-0.3,0.1-0.6,0.1h-0.3v0.3c0,0.2,0,0.3,0,0.3h0.1c0.1,0,0.2,0,0.4,0s0.3,0,0.5,0s0.3,0,0.5,0s0.3,0,0.4,0
				s0.1,0,0.2,0l0,0v-0.6c0-0.4,0-0.5,0-0.5s0,0,0.1,0.1c0,0,0.1,0.1,0.2,0.2s0.2,0.2,0.3,0.3c0.1,0.1,0.2,0.2,0.4,0.3
				c0.2,0.1,0.3,0.2,0.5,0.2s0.4,0.1,0.7,0.1c1.1,0,1.6-0.6,1.8-1.6c0-0.1,0-0.7,0-1.9v-1.2c0-0.4,0-0.6,0-0.6s0.1-0.1,0.2-0.1
				c0.2,0,0.4,0,0.7,0h0.2V-12h-0.1h-0.3c-0.2,0-0.4,0-0.7,0s-0.4,0-0.5,0c-1,0-1.5,0-1.6,0h-0.1v0.6h0.2c0.6,0,0.8,0.1,0.8,0.2
				c0,0,0,0.7,0,1.9c0,1.3,0,1.9,0,2c-0.1,0.3-0.1,0.5-0.3,0.6s-0.2,0.2-0.3,0.2s-0.2,0-0.4,0c-0.4,0-0.8-0.2-1.1-0.5
				s-0.4-0.5-0.5-0.8c-0.1-0.3-0.1-0.6-0.1-1.2v-0.9v-0.8c0-0.3,0-0.5,0-0.6s0-0.2,0-0.2l0.1-0.1c0.2,0,0.4,0,0.7,0h0.2V-12h-0.1
				h-0.3c-0.2,0-0.5,0-0.7,0s-0.4,0-0.5,0c-1,0-1.5,0-1.6,0h-0.1v0.6H-13592.8z"/>
		</g>
	</g>
	<g>
		<path id="E1-MJMAIN-28_00000021081771435904269250000003534812771764529027_" class="st0" d="M210.7-8.5c0,0.6,0,1.2,0.1,1.8
			s0.2,1.1,0.3,1.5s0.3,0.8,0.5,1.2s0.4,0.7,0.5,0.9s0.3,0.5,0.6,0.7c0.3,0.3,0.4,0.4,0.5,0.5c0,0.1,0.2,0.2,0.3,0.3h0.2h0.1
			c0.1,0,0.2,0,0.2-0.1c0,0-0.1-0.1-0.2-0.3c-0.2-0.2-0.3-0.4-0.6-0.7c-0.2-0.3-0.5-0.7-0.7-1.2s-0.4-1.1-0.6-1.9s-0.2-1.7-0.2-2.7
			s0.1-1.9,0.2-2.7c0.2-0.8,0.3-1.4,0.6-1.9c0.2-0.5,0.5-0.9,0.7-1.2s0.4-0.6,0.6-0.7c0.2-0.2,0.2-0.3,0.2-0.3
			c0-0.1-0.1-0.1-0.2-0.1l0,0h-0.2l-0.4,0.3c-0.9,0.8-1.5,1.8-1.9,3C210.9-11,210.7-9.8,210.7-8.5z"/>
	</g>
	<g transform="translate(15414,0)">
		<g>
			<path id="E1-MJMATHI-3C9_00000127020323743443746870000014640522684644754362_" class="st0" d="M-15192.3-6.7
				c0,0.2,0.1,0.4,0.3,0.6s0.4,0.3,0.6,0.3c0.2,0,0.3-0.1,0.5-0.3c0.1-0.2,0.2-0.5,0.2-0.8s-0.1-0.7-0.2-1.2
				c-0.1-0.5-0.3-1.1-0.5-1.7s-0.6-1.2-1-1.6c-0.4-0.5-0.9-0.7-1.5-0.7c-0.7,0-1.3,0.4-1.5,1.1c0,0,0,0-0.1-0.1
				c-0.5-0.7-1.2-1-1.9-1c-1,0-1.5,0.7-1.5,2.1c0,0.8,0.2,1.7,0.6,2.6c0.4,0.9,0.7,1.4,0.9,1.5c0.1,0.1,0.2,0.1,0.3,0
				s0.2-0.1,0.2-0.3c0-0.1-0.1-0.3-0.3-0.5c-0.2-0.3-0.4-0.6-0.6-1c-0.2-0.4-0.4-0.9-0.4-1.4c0-0.1,0-0.2,0-0.3c0-0.6,0.1-1,0.3-1.2
				s0.5-0.3,0.8-0.3c0.5,0,1,0.2,1.4,0.7l0.1,0.1v0.3c0,1.3,0.3,2,0.9,2c0.3,0,0.4-0.2,0.4-0.5c0-0.2,0-0.4-0.1-0.7
				s-0.2-0.5-0.3-0.8l-0.1-0.3c0,0,0,0,0-0.1c0,0,0-0.1,0.1-0.2c0.1-0.1,0.1-0.2,0.2-0.3c0.1-0.1,0.2-0.1,0.3-0.2
				c0.1-0.1,0.3-0.1,0.5-0.1c0.6,0,1.1,0.3,1.5,1s0.6,1.3,0.6,1.8c0,0.3-0.1,0.5-0.2,0.7c-0.1,0.2-0.2,0.3-0.3,0.4
				S-15192.3-6.8-15192.3-6.7z"/>
		</g>
		<g transform="scale(0.707)">
			<path id="E1-MJMATHI-79_00000088839917740364046360000005166123109098650760_" class="st1" d="M-15190.3-11.3
				c0,0.1,0,0.2,0.1,0.5s0.3,0.5,0.5,0.7s0.5,0.4,0.7,0.4c0.3,0,0.5-0.1,0.7-0.2s0.2-0.4,0.3-0.6c0-0.1,0-0.2,0-0.2
				s-0.1-0.2-0.2-0.5c-0.1-0.3-0.2-0.6-0.3-1s-0.2-0.6-0.2-0.8c0-0.3,0-0.5,0.1-0.6s0.2-0.2,0.4-0.2s0.3,0,0.4,0.1
				c0.1,0.1,0.2,0.1,0.3,0.2c0.1,0.1,0.2,0.2,0.3,0.3c0,0,0,0.1,0,0.2c0,0.1,0.1,0.3,0.1,0.6c0.1,0.3,0.1,0.5,0.2,0.7
				c0.2,1,0.4,1.5,0.4,1.5c0.1,0.2,0.2,0.3,0.4,0.3c0.1,0,0.2,0,0.2-0.1c0.1,0,0.1-0.1,0.1-0.1v-0.1c0-0.1-0.2-0.8-0.5-2.1
				s-0.5-2-0.6-2.1c-0.2-0.5-0.5-1-1-1.3s-0.9-0.5-1.4-0.5c-0.3,0-0.6,0.1-0.8,0.2s-0.3,0.4-0.3,0.7c0,0.1,0,0.3,0.1,0.4
				c0,0.1,0.1,0.2,0.2,0.2s0.1,0.1,0.2,0.1c0.1,0,0.1,0,0.2,0c0.3,0,0.4-0.1,0.4-0.4c0-0.1,0-0.2-0.1-0.3s-0.2-0.2-0.2-0.2h-0.1l0,0
				c0,0,0.1-0.1,0.2-0.1c0.1,0,0.2-0.1,0.3-0.1h0.1c0.1,0,0.2,0,0.3,0c0.2,0.1,0.4,0.2,0.6,0.4c0.2,0.2,0.3,0.4,0.4,0.6
				c0.1,0.2,0.2,0.4,0.2,0.6c0.1,0.2,0.1,0.2,0.1,0.3h-0.1c0,0-0.1-0.1-0.2-0.1s-0.2-0.1-0.3-0.1s-0.3,0-0.4,0
				c-0.3,0-0.6,0.1-0.8,0.2c-0.2,0.1-0.4,0.4-0.5,0.7c0,0,0,0.1,0,0.3c0,0.4,0.1,0.9,0.3,1.5s0.3,1,0.3,1.2l0,0c0,0.1,0,0.1,0,0.1
				s0,0,0,0.1s-0.1,0-0.1,0l0,0c-0.2,0-0.3-0.1-0.4-0.2s-0.2-0.3-0.3-0.4c-0.1-0.1-0.1-0.3-0.2-0.4c0-0.1-0.1-0.2-0.1-0.2
				s-0.1,0-0.2,0L-15190.3-11.3L-15190.3-11.3z"/>
		</g>
	</g>
	<g>
		<path id="E1-MJMATHI-74_00000141426779172289678690000016494949874712750484_" class="st0" d="M230.1-6.7C230-6.6,230-6.6,230-6.6
			s0,0.1,0,0.2s0.1,0.2,0.1,0.2l0.1,0.1c0.1,0,0.3,0,0.7,0h0.7l0.3,1.1c0,0.1,0.1,0.2,0.1,0.4c0,0.2,0.1,0.3,0.1,0.4
			s0.1,0.2,0.1,0.3c0,0.1,0.1,0.2,0.1,0.2s0.1,0.1,0.1,0.2c0,0.1,0.1,0.1,0.2,0.1s0.2,0,0.3,0c0.2,0,0.3-0.1,0.3-0.2
			c0.1-0.1,0.1-0.2,0.1-0.3c0-0.1,0-0.3-0.1-0.7s-0.2-0.7-0.3-1.1l0-0.3c0,0,0.2,0,0.7,0h0.7c0.1-0.1,0.1-0.1,0.1-0.2
			c0-0.2-0.1-0.4-0.2-0.5h-1.5l-0.5-2c-0.4-1.5-0.5-2.3-0.5-2.4c0-0.4,0.1-0.6,0.4-0.6c0.3,0,0.6,0.2,0.9,0.5
			c0.3,0.3,0.6,0.7,0.7,1.2c0,0.1,0,0.1,0.1,0.1c0,0,0.1,0,0.2,0h0.1c0.1,0,0.2,0,0.2-0.1c0,0,0-0.1,0-0.2c0-0.1-0.1-0.3-0.3-0.5
			s-0.3-0.4-0.5-0.7c-0.2-0.2-0.4-0.4-0.7-0.6c-0.3-0.2-0.6-0.2-0.8-0.2c-0.3,0-0.5,0.1-0.8,0.2c-0.3,0.1-0.4,0.4-0.5,0.7
			c0,0.1,0,0.2,0,0.4v0.3l0.5,2c0.3,1.3,0.5,2,0.5,2s-0.2,0-0.7,0L230.1-6.7L230.1-6.7z"/>
	</g>
	<g>
		<path id="E1-MJMAIN-2B_00000112625708829820522080000003453623742795810945_" class="st0" d="M238.7-8.7c0,0,0,0.1,0,0.2
			c0,0.1,0.1,0.2,0.2,0.3h4.2v2.1V-4c0.1,0.1,0.2,0.2,0.3,0.2s0.2-0.1,0.3-0.2v-4.2h4.2c0.1-0.1,0.2-0.2,0.2-0.3s-0.1-0.2-0.2-0.3
			h-4.2V-13c-0.1-0.1-0.2-0.2-0.3-0.2l0,0l0,0c-0.1,0-0.2,0.1-0.3,0.2v4.2h-4.2c-0.1,0.1-0.2,0.2-0.2,0.3V-8.7z"/>
	</g>
	<g transform="translate(18073,0)">
		<g>
			<path id="E1-MJMATHI-3D5_00000001658359444590693460000011770016619239066785_" class="st0" d="M-17815.5-2.4
				c0,0.1,0.1,0.1,0.2,0.1h0.1h0.2c0.1-0.1,0.1-0.1,0.1-0.1c0-0.1-0.1-0.6-0.4-1.7c-0.1-0.3-0.1-0.5-0.2-0.8s-0.1-0.5-0.2-0.6
				l-0.1-0.2c0,0,0,0,0.1,0s0.2,0,0.4-0.1c0.2-0.1,0.4-0.1,0.7-0.2c0.4-0.2,0.7-0.5,1-0.8c0.3-0.4,0.4-0.8,0.4-1.4s-0.1-1-0.4-1.5
				s-0.6-0.9-1.1-1.2s-0.9-0.6-1.4-0.8s-0.9-0.3-1.3-0.3h-0.1l-0.3-1.3c-0.1-0.2-0.1-0.5-0.2-0.8s-0.1-0.5-0.2-0.5
				c0-0.1-0.1-0.1-0.2-0.1h-0.1c-0.2,0-0.3,0-0.3,0.1c0,0,0.1,0.5,0.3,1.3l0.3,1.3c0,0,0,0-0.1,0c0,0-0.1,0-0.3,0
				c-0.1,0-0.3,0.1-0.6,0.2c-0.3,0.1-0.5,0.3-0.8,0.4c-0.2,0.2-0.4,0.4-0.6,0.7s-0.3,0.7-0.3,1.1c0,0.6,0.2,1.1,0.5,1.6
				s0.7,0.9,1.1,1.2s0.9,0.5,1.4,0.7s0.9,0.3,1.2,0.3c0,0,0.1,0,0.1,0.1l0.4,1.7C-17815.6-3-17815.5-2.5-17815.5-2.4z M-17819.5-9.9
				c0-0.3,0.1-0.6,0.2-0.8s0.3-0.4,0.5-0.5s0.4-0.2,0.5-0.3c0.1,0,0.3-0.1,0.5-0.1h0.1l1.3,5.3c0,0-0.1,0-0.2,0s-0.2,0-0.4-0.1
				c-0.2-0.1-0.4-0.1-0.6-0.2s-0.4-0.2-0.6-0.4s-0.4-0.4-0.6-0.6c-0.2-0.3-0.3-0.6-0.5-0.9C-17819.4-9.2-17819.5-9.6-17819.5-9.9z
				 M-17814.2-8.1c0,0.4-0.1,0.7-0.2,0.9s-0.3,0.4-0.6,0.5c-0.2,0.1-0.4,0.2-0.5,0.2s-0.2,0.1-0.3,0.1l0,0l-0.6-2.6l-0.7-2.6l0,0
				c0.1,0,0.2,0,0.4,0.1c0.2,0.1,0.4,0.1,0.6,0.2c0.4,0.2,0.7,0.4,1,0.7s0.5,0.6,0.6,1s0.2,0.6,0.3,0.9
				C-17814.2-8.5-17814.2-8.3-17814.2-8.1z"/>
		</g>
		<g transform="scale(0.707)">
			<path id="E1-MJMATHI-79_00000142173183960930496270000015471043711977226887_" class="st1" d="M-17812.6-11.3
				c0,0.1,0,0.2,0.1,0.5c0.1,0.2,0.3,0.5,0.5,0.7s0.5,0.4,0.7,0.4c0.3,0,0.5-0.1,0.7-0.2s0.2-0.4,0.3-0.6c0-0.1,0-0.2,0-0.2
				s-0.1-0.2-0.2-0.5s-0.2-0.6-0.3-1c-0.1-0.4-0.2-0.6-0.2-0.8c0-0.3,0-0.5,0.1-0.6s0.2-0.2,0.4-0.2c0.2,0,0.3,0,0.4,0.1
				s0.2,0.1,0.3,0.2c0.1,0.1,0.2,0.2,0.3,0.3c0,0,0,0.1,0,0.2s0.1,0.3,0.1,0.6c0.1,0.3,0.1,0.5,0.2,0.7c0.2,1,0.4,1.5,0.4,1.5
				c0.1,0.2,0.2,0.3,0.4,0.3c0.1,0,0.2,0,0.2-0.1s0.1-0.1,0.1-0.1v-0.1c0-0.1-0.2-0.8-0.5-2.1s-0.5-2-0.6-2.1c-0.2-0.5-0.5-1-1-1.3
				s-0.9-0.5-1.4-0.5c-0.3,0-0.6,0.1-0.8,0.2c-0.2,0.1-0.3,0.4-0.3,0.7c0,0.1,0,0.3,0.1,0.4c0,0.1,0.1,0.2,0.2,0.2s0.1,0.1,0.2,0.1
				s0.1,0,0.2,0c0.3,0,0.4-0.1,0.4-0.4c0-0.1,0-0.2-0.1-0.3s-0.2-0.2-0.2-0.2h-0.1l0,0c0,0,0.1-0.1,0.2-0.1s0.2-0.1,0.3-0.1h0.1
				c0.1,0,0.2,0,0.3,0c0.2,0.1,0.4,0.2,0.6,0.4s0.3,0.4,0.4,0.6c0.1,0.2,0.2,0.4,0.2,0.6s0.1,0.2,0.1,0.3h-0.1c0,0-0.1-0.1-0.2-0.1
				s-0.2-0.1-0.3-0.1c-0.1,0-0.3,0-0.4,0c-0.3,0-0.6,0.1-0.8,0.2c-0.2,0.1-0.4,0.4-0.5,0.7c0,0,0,0.1,0,0.3c0,0.4,0.1,0.9,0.3,1.5
				s0.3,1,0.3,1.2l0,0c0,0.1,0,0.1,0,0.1s0,0,0,0.1h-0.1l0,0c-0.2,0-0.3-0.1-0.4-0.2s-0.2-0.3-0.3-0.4c-0.1-0.1-0.1-0.3-0.2-0.4
				c0-0.1-0.1-0.2-0.1-0.2s-0.1,0-0.2,0L-17812.6-11.3L-17812.6-11.3z"/>
		</g>
	</g>
	<g>
		<path id="E1-MJMAIN-29_00000029747576392968104420000011098921423895068850_" class="st0" d="M267.3-1.6L267.3-1.6
			c0.1,0,0.1,0,0.2,0h0.2l0.4-0.3c0.9-0.8,1.5-1.8,1.9-3s0.6-2.4,0.6-3.7c0-0.6,0-1.2-0.1-1.8s-0.2-1.1-0.3-1.5
			c-0.1-0.4-0.3-0.8-0.5-1.2s-0.4-0.7-0.5-0.9s-0.3-0.5-0.6-0.7c-0.3-0.3-0.4-0.4-0.4-0.5s-0.2-0.1-0.3-0.3c0,0,0,0-0.1-0.1h-0.2
			c-0.1,0-0.1,0-0.2,0h-0.1v0.1c0,0,0.1,0.1,0.2,0.2c1.4,1.5,2.2,3.7,2.2,6.6s-0.7,5.1-2.2,6.6c-0.1,0.1-0.1,0.2-0.2,0.2
			C267.2-1.7,267.2-1.6,267.3-1.6z"/>
	</g>
</g>
</svg>
