<?xml version="1.0" encoding="utf-8"?>
<!-- Generator: Adobe Illustrator 28.1.0, SVG Export Plug-In . SVG Version: 6.00 Build 0)  -->
<svg version="1.1" id="Livello_1" focusable="false"
	 xmlns="http://www.w3.org/2000/svg" xmlns:xlink="http://www.w3.org/1999/xlink" x="0px" y="0px" viewBox="0 0 275.8 18.1"
	 style="enable-background:new 0 0 275.8 18.1;" xml:space="preserve">
<style type="text/css">
	.st0{fill:#FFFFFF;stroke:#FFFFFF;stroke-width:1.393378e-02;stroke-miterlimit:10;}
	.st1{fill:#FFFFFF;stroke:#FFFFFF;stroke-width:9.851185e-03;stroke-miterlimit:10;}
</style>
<g transform="matrix(1 0 0 -1 0 0)">
	<g>
		<path id="E1-MJMATHI-78" class="st0" d="M3.1-8.2c0.1,0.4,0.3,0.8,0.8,1.4s1,0.8,1.6,0.8c0.3,0,0.6-0.1,0.9-0.3S6.8-6.7,7-6.9
			c0.4,0.6,0.9,0.9,1.4,0.9c0.3,0,0.6-0.1,0.9-0.3c0.3-0.2,0.4-0.5,0.4-0.8c0-0.3-0.1-0.5-0.2-0.7C9.3-8,9.2-8.1,9.1-8.1
			C9-8.2,8.9-8.2,8.8-8.2c-0.2,0-0.3,0.1-0.4,0.2C8.2-7.9,8.2-7.8,8.2-7.6c0,0.4,0.2,0.7,0.7,0.9C8.8-6.6,8.6-6.6,8.3-6.6
			c-0.1,0-0.2,0-0.3,0C7.7-6.8,7.4-7.1,7.3-7.5c-0.6-2.1-0.8-3.3-0.8-3.6c0-0.3,0.1-0.4,0.2-0.6s0.3-0.2,0.5-0.2
			c0.3,0,0.7,0.2,1,0.5c0.3,0.3,0.6,0.7,0.7,1.1c0,0.1,0.1,0.1,0.1,0.2c0,0,0.1,0,0.2,0h0.1c0.1,0,0.2,0,0.2-0.1c0,0,0-0.1,0-0.2
			c-0.1-0.5-0.4-1-0.9-1.4c-0.4-0.4-0.9-0.6-1.5-0.6c-0.7,0-1.1,0.3-1.5,0.9c-0.4-0.6-0.8-0.9-1.3-0.9H4.2c-0.5,0-0.8,0.1-1,0.4
			c-0.2,0.2-0.3,0.5-0.3,0.8c0,0.3,0.1,0.5,0.3,0.7c0.2,0.2,0.4,0.3,0.6,0.3c0.4,0,0.6-0.2,0.6-0.6c0-0.2-0.1-0.3-0.2-0.5
			c-0.1-0.1-0.2-0.2-0.3-0.3c-0.1,0-0.2-0.1-0.2-0.1l0,0c0,0,0,0,0.1-0.1s0.1-0.1,0.2-0.1c0.1,0,0.2-0.1,0.3,0
			c0.3,0,0.6,0.2,0.9,0.6c0.1,0.1,0.2,0.5,0.3,0.9c0.1,0.5,0.3,1,0.4,1.5C5.9-8.3,6-7.9,6-7.9c0,0.3,0.1,0.4,0.1,0.5
			c0,0.3-0.1,0.4-0.2,0.6C5.8-6.6,5.6-6.6,5.4-6.6C5-6.6,4.7-6.7,4.4-7C4-7.3,3.8-7.7,3.7-8.2c0-0.1,0-0.1-0.1-0.1c0,0-0.1,0-0.2,0
			H3.2C3.1-8.3,3.1-8.2,3.1-8.2z"/>
	</g>
	<g>
		<path id="E1-MJMAIN-3D" class="st0" d="M15-7.4c0,0.1,0.1,0.2,0.2,0.3h8.9c0.1-0.1,0.2-0.2,0.2-0.3c0-0.1-0.1-0.2-0.2-0.3l-4.4,0
			h-4.4C15.1-7.6,15-7.5,15-7.4z M15-10.1c0,0.1,0.1,0.2,0.2,0.3h8.9c0.1-0.1,0.2-0.2,0.2-0.3c0-0.1-0.1-0.2-0.2-0.3h-8.9
			C15.1-10.3,15-10.2,15-10.1z"/>
	</g>
	<g transform="translate(1906,0)">
		<g>
			<path id="E1-MJMATHI-41" class="st0" d="M-1874.2-11.2c0-0.2,0.2-0.4,0.6-0.4c0.2,0,0.3-0.1,0.3-0.2c0,0,0-0.1,0-0.2
				c0-0.1-0.1-0.2-0.1-0.3s-0.1-0.1-0.2-0.1c0,0-0.1,0-0.2,0c-0.1,0-0.3,0-0.5,0c-0.2,0-0.5,0-0.9,0c-0.7,0-1.1,0-1.3,0h-0.1
				c-0.1,0.1-0.1,0.1-0.1,0.2c0,0.3,0.1,0.4,0.2,0.5h0.2c0.7,0,1.1,0.3,1.4,0.7c0.1,0.1,0.9,1.5,2.5,4.2s2.5,4.2,2.5,4.2
				c0.1,0.1,0.2,0.2,0.3,0.2h0.1h0.2c0.1-0.1,0.1-0.1,0.1-0.1l0.4-4.5c0.3-3,0.4-4.5,0.4-4.5c0-0.1,0.3-0.2,0.9-0.2
				c0.2,0,0.3,0,0.3-0.1c0,0,0-0.1,0-0.2c0-0.1-0.1-0.2-0.1-0.3s-0.1,0-0.2-0.1c0,0-0.1,0-0.2,0s-0.3,0-0.5,0c-0.3,0-0.6,0-1,0
				c-0.9,0-1.4,0-1.7,0h-0.2c-0.1,0.1-0.1,0.1-0.1,0.1s0,0.1,0,0.3c0,0.1,0.1,0.2,0.1,0.2l0.1,0h0.3c0.5,0,0.8,0.1,0.9,0.2l-0.2,2.1
				h-3.3l-0.5-0.8C-1874-10.7-1874.2-11.1-1874.2-11.2z M-1869.9-8.6c0,0.1-0.1,0.8-0.2,2.2s-0.2,2-0.2,2l-0.4-0.6
				c-0.1-0.3-0.4-0.7-0.9-1.5l-1.3-2.1l1.4,0C-1870.3-8.6-1869.9-8.6-1869.9-8.6z"/>
		</g>
		<g transform="scale(0.707)">
			<path id="E1-MJMATHI-78_00000166668373443790606040000009511810997881337997_" class="st1" d="M-1866.1-11.5c0,0.3,0.2,0.6,0.5,1
				c0.3,0.4,0.7,0.5,1.1,0.6c0.2,0,0.4-0.1,0.6-0.2c0.2-0.1,0.3-0.3,0.4-0.4c0.3,0.4,0.6,0.6,1,0.6c0.2,0,0.5-0.1,0.6-0.2
				c0.2-0.1,0.3-0.3,0.3-0.6c0-0.2,0-0.3-0.1-0.5c-0.1-0.1-0.2-0.2-0.3-0.2c-0.1,0-0.2,0-0.2,0c-0.1,0-0.2,0-0.3,0.1
				c-0.1,0.1-0.1,0.2-0.1,0.3c0,0.3,0.2,0.5,0.5,0.6c-0.1,0.1-0.2,0.1-0.4,0.1c-0.1,0-0.1,0-0.2,0c-0.2-0.1-0.4-0.3-0.6-0.7
				c-0.4-1.5-0.6-2.3-0.6-2.5c0-0.2,0.1-0.3,0.2-0.4s0.2-0.1,0.3-0.1c0.2,0,0.5,0.1,0.7,0.3c0.2,0.2,0.4,0.5,0.5,0.8
				c0,0.1,0,0.1,0.1,0.1c0,0,0.1,0,0.2,0h0c0.1,0,0.1,0,0.1-0.1c0,0,0,0,0-0.1c-0.1-0.4-0.3-0.7-0.6-1s-0.7-0.4-1.1-0.4
				c-0.5,0-0.8,0.2-1,0.6c-0.3-0.4-0.6-0.6-0.9-0.6h-0.1c-0.3,0-0.6,0.1-0.7,0.3c-0.1,0.2-0.2,0.4-0.2,0.5c0,0.2,0.1,0.4,0.2,0.5
				c0.1,0.1,0.3,0.2,0.4,0.2c0.3,0,0.4-0.1,0.4-0.4c0-0.1,0-0.2-0.1-0.3c-0.1-0.1-0.2-0.2-0.2-0.2c-0.1,0-0.1,0-0.1,0l0,0
				c0,0,0,0,0.1,0c0,0,0.1,0,0.2-0.1s0.1,0,0.2,0c0.2,0,0.4,0.1,0.6,0.4c0.1,0.1,0.1,0.3,0.2,0.7c0.1,0.3,0.2,0.7,0.3,1.1
				c0.1,0.4,0.1,0.6,0.2,0.7c0,0.2,0,0.3,0,0.4c0,0.2,0,0.3-0.1,0.4c-0.1,0.1-0.2,0.1-0.3,0.1c-0.3,0-0.5-0.1-0.7-0.3
				s-0.4-0.5-0.5-0.8c0-0.1,0-0.1,0-0.1c0,0-0.1,0-0.2,0h-0.1C-1866.1-11.5-1866.1-11.5-1866.1-11.5z"/>
		</g>
	</g>
	<g transform="translate(3328,0)">
		<g>
			<path id="E1-MJMAIN-73" class="st0" d="M-3275.1-7.8c0,0.4-0.1,0.7-0.4,1c-0.3,0.3-0.6,0.4-1.1,0.4c-0.3,0-0.6-0.1-0.9-0.2
				c-0.3-0.2-0.4-0.4-0.4-0.7c0,0,0-0.1,0-0.2s0.1-0.2,0.2-0.3c0.1-0.1,0.3-0.3,0.6-0.3c0.2,0,0.4-0.1,0.6-0.1
				c0.2,0,0.4-0.1,0.6-0.1s0.3-0.1,0.4-0.2c0.2-0.1,0.3-0.2,0.5-0.3c0.1-0.1,0.3-0.3,0.4-0.6s0.2-0.6,0.2-0.9c0-0.6-0.2-1-0.5-1.4
				s-0.9-0.6-1.7-0.6h-0.1c-0.5,0-0.9,0.2-1.3,0.5l-0.1-0.1l-0.1-0.1c-0.1-0.1-0.1-0.1-0.2-0.2l-0.2-0.1h-0.1h-0.1
				c0,0-0.1,0-0.1,0.1v1.1v0.8c0,0.2,0,0.3,0,0.3s0.1,0.1,0.1,0.1h0.1c0.1,0,0.2,0,0.2-0.1s0.1-0.1,0.1-0.2c0-0.1,0-0.2,0.1-0.4
				s0.1-0.4,0.3-0.6c0.3-0.5,0.8-0.7,1.4-0.7c0.9,0,1.4,0.4,1.4,1.1c0,0.3-0.1,0.5-0.3,0.7c-0.2,0.2-0.6,0.4-1.2,0.5s-1,0.2-1.2,0.3
				c-0.3,0.2-0.6,0.4-0.8,0.6c-0.2,0.3-0.3,0.6-0.3,0.9c0,0.4,0.1,0.7,0.2,0.9c0.2,0.3,0.4,0.4,0.6,0.6c0.2,0.1,0.5,0.2,0.7,0.3
				c0.2,0,0.4,0.1,0.6,0.1h0.2c0.4,0,0.7-0.1,1-0.2l0.2-0.1l0.1,0.1c0.1,0.1,0.2,0.2,0.3,0.2h0.1h0.1c0,0,0.1,0,0.1-0.1v-1.8
				l-0.1-0.1h-0.4C-3275.1-7.9-3275.1-7.9-3275.1-7.8z"/>
		</g>
		<g>
			<path id="E1-MJMAIN-69" class="st0" d="M-3272.8-3.7c0,0.3,0.1,0.5,0.3,0.6s0.4,0.2,0.6,0.2c0.2,0,0.4-0.1,0.6-0.2
				s0.2-0.3,0.2-0.6c0-0.3-0.1-0.5-0.2-0.6c-0.2-0.1-0.4-0.2-0.6-0.2s-0.4,0.1-0.6,0.2C-3272.7-4.2-3272.8-4-3272.8-3.7z
				 M-3270.3-12.2c-0.1,0-0.6,0-1.4,0c-0.1,0-0.3,0-0.5,0s-0.5,0-0.7,0l-0.3,0h-0.1v0.6h0.2c0.3,0,0.5,0,0.7,0
				c0.1,0,0.1,0.1,0.2,0.2s0,0.3,0,0.6v1.4v1.2c0,0.5,0,0.8,0,0.9s-0.1,0.2-0.2,0.3c-0.1,0.1-0.3,0.1-0.7,0.1h-0.2v0.3
				c0,0.2,0,0.3,0,0.3l0.1,0c0.1,0,0.2,0,0.4,0c0.2,0,0.3,0,0.5,0c0.2,0,0.3,0,0.5,0c0.2,0,0.3,0,0.4,0c0.1,0,0.1,0,0.2,0h0v-5.3
				c0-0.1,0.1-0.1,0.2-0.2s0.2,0,0.5-0.1h0.3v-0.6H-3270.3z"/>
		</g>
		<g>
			<path id="E1-MJMAIN-6E" class="st0" d="M-3269.3-11.6h0.2c0.4,0,0.6,0.1,0.7,0.2v0.1c0,0.1,0,0.2,0,0.3s0,0.3,0,0.4s0,0.3,0,0.5
				c0,0.2,0,0.4,0,0.6c0,0.3,0,0.6,0,0.9s0,0.6,0,0.8v0.3c0,0.2-0.1,0.3-0.2,0.3c-0.1,0.1-0.3,0.1-0.6,0.1h-0.3v0.3
				c0,0.2,0,0.3,0,0.3l0.1,0c0.1,0,0.2,0,0.4,0c0.2,0,0.3,0,0.5,0c0.2,0,0.3,0,0.5,0c0.2,0,0.3,0,0.4,0c0.1,0,0.1,0,0.2,0h0v-0.6
				c0-0.4,0-0.5,0-0.5s0,0,0.1,0.1c0,0,0.1,0.1,0.2,0.2c0.1,0.1,0.2,0.2,0.3,0.3c0.1,0.1,0.2,0.2,0.4,0.3c0.2,0.1,0.3,0.2,0.5,0.2
				c0.2,0,0.4,0.1,0.7,0.1c1.1,0,1.6-0.6,1.8-1.6c0-0.1,0-0.7,0-1.9v-1.2c0-0.4,0-0.6,0-0.6c0-0.1,0.1-0.1,0.2-0.1
				c0.2,0,0.4,0,0.7,0h0.2v-0.6h-0.1l-0.3,0c-0.2,0-0.4,0-0.7,0c-0.3,0-0.4,0-0.5,0c-1,0-1.5,0-1.6,0h-0.1v0.6h0.2
				c0.6,0,0.8,0.1,0.8,0.2c0,0,0,0.7,0,1.9c0,1.3,0,1.9,0,2c-0.1,0.3-0.1,0.5-0.3,0.6s-0.2,0.2-0.3,0.2c-0.1,0-0.2,0-0.4,0
				c-0.4,0-0.8-0.2-1.1-0.5c-0.3-0.3-0.4-0.5-0.5-0.8c-0.1-0.3-0.1-0.6-0.1-1.2v-0.9v-0.8c0-0.3,0-0.5,0-0.6c0-0.1,0-0.2,0-0.2
				s0.1-0.1,0.1-0.1c0.2,0,0.4,0,0.7,0h0.2v-0.6h-0.1l-0.3,0c-0.2,0-0.5,0-0.7,0s-0.4,0-0.5,0c-1,0-1.5,0-1.6,0h-0.1v0.6H-3269.3z"
				/>
		</g>
	</g>
	<g>
		<path id="E1-MJMAIN-28" class="st0" d="M67.2-8.7c0,0.6,0,1.2,0.1,1.8c0.1,0.6,0.2,1.1,0.3,1.5C67.8-5,68-4.6,68.2-4.2
			c0.2,0.4,0.4,0.7,0.5,0.9C68.8-3,69-2.8,69.3-2.5c0.3,0.3,0.4,0.4,0.5,0.5c0,0.1,0.2,0.2,0.3,0.3h0.2h0.1c0.1,0,0.2,0,0.2-0.1
			c0,0-0.1-0.1-0.2-0.3c-0.2-0.2-0.3-0.4-0.6-0.7s-0.5-0.7-0.7-1.2S68.6-5.2,68.5-6s-0.2-1.7-0.2-2.7s0.1-1.9,0.2-2.7
			s0.3-1.4,0.6-1.9c0.2-0.5,0.5-0.9,0.7-1.2c0.2-0.3,0.4-0.6,0.6-0.7c0.2-0.2,0.2-0.3,0.2-0.3c0-0.1-0.1-0.1-0.2-0.1h0h-0.2
			l-0.4,0.3c-0.9,0.8-1.5,1.8-1.9,3C67.4-11.2,67.2-10,67.2-8.7z"/>
	</g>
	<g transform="translate(4947,0)">
		<g>
			<path id="E1-MJMATHI-3C9" class="st0" d="M-4868.8-6.9c0,0.2,0.1,0.4,0.3,0.6s0.4,0.3,0.6,0.3c0.2,0,0.3-0.1,0.5-0.3
				c0.1-0.2,0.2-0.5,0.2-0.8c0-0.3-0.1-0.7-0.2-1.2c-0.1-0.5-0.3-1.1-0.5-1.7s-0.6-1.2-1-1.6c-0.4-0.5-0.9-0.7-1.5-0.7
				c-0.7,0-1.3,0.4-1.5,1.1c0,0,0,0-0.1-0.1c-0.5-0.7-1.2-1-1.9-1c-1,0-1.5,0.7-1.5,2.1c0,0.8,0.2,1.7,0.6,2.6s0.7,1.4,0.9,1.5
				c0.1,0.1,0.2,0.1,0.3,0c0.1-0.1,0.2-0.1,0.2-0.3c0-0.1-0.1-0.3-0.3-0.5c-0.2-0.3-0.4-0.6-0.6-1c-0.2-0.4-0.4-0.9-0.4-1.4
				c0-0.1,0-0.2,0-0.3c0-0.6,0.1-1,0.3-1.2s0.5-0.3,0.8-0.3c0.5,0,1,0.2,1.4,0.7l0.1,0.1v0.3c0,1.3,0.3,2,0.9,2
				c0.3,0,0.4-0.2,0.4-0.5c0-0.2,0-0.4-0.1-0.7c-0.1-0.3-0.2-0.5-0.3-0.8l-0.1-0.3c0,0,0,0,0-0.1c0,0,0-0.1,0.1-0.2s0.1-0.2,0.2-0.3
				c0.1-0.1,0.2-0.1,0.3-0.2c0.1-0.1,0.3-0.1,0.5-0.1c0.6,0,1.1,0.3,1.5,1c0.4,0.7,0.6,1.3,0.6,1.8c0,0.3-0.1,0.5-0.2,0.7
				c-0.1,0.2-0.2,0.3-0.3,0.4C-4868.7-7.1-4868.8-7-4868.8-6.9z"/>
		</g>
		<g transform="scale(0.707)">
			<path id="E1-MJMATHI-78_00000147196978781449790640000007158207562428150709_" class="st1" d="M-4866.5-11.5c0,0.3,0.2,0.6,0.5,1
				s0.7,0.5,1.1,0.6c0.2,0,0.4-0.1,0.6-0.2c0.2-0.1,0.3-0.3,0.4-0.4c0.3,0.4,0.6,0.6,1,0.6c0.2,0,0.5-0.1,0.6-0.2
				c0.2-0.1,0.3-0.3,0.3-0.6c0-0.2,0-0.3-0.1-0.5c-0.1-0.1-0.2-0.2-0.3-0.2s-0.2,0-0.2,0c-0.1,0-0.2,0-0.3,0.1
				c-0.1,0.1-0.1,0.2-0.1,0.3c0,0.3,0.2,0.5,0.5,0.6c-0.1,0.1-0.2,0.1-0.4,0.1c-0.1,0-0.1,0-0.2,0c-0.2-0.1-0.4-0.3-0.6-0.7
				c-0.4-1.5-0.6-2.3-0.6-2.5c0-0.2,0.1-0.3,0.2-0.4s0.2-0.1,0.3-0.1c0.2,0,0.5,0.1,0.7,0.3s0.4,0.5,0.5,0.8c0,0.1,0,0.1,0.1,0.1
				c0,0,0.1,0,0.2,0h0c0.1,0,0.1,0,0.1-0.1c0,0,0,0,0-0.1c-0.1-0.4-0.3-0.7-0.6-1c-0.3-0.3-0.7-0.4-1.1-0.4c-0.5,0-0.8,0.2-1,0.6
				c-0.3-0.4-0.6-0.6-0.9-0.6h-0.1c-0.3,0-0.6,0.1-0.7,0.3c-0.1,0.2-0.2,0.4-0.2,0.5c0,0.2,0.1,0.4,0.2,0.5c0.1,0.1,0.3,0.2,0.4,0.2
				c0.3,0,0.4-0.1,0.4-0.4c0-0.1,0-0.2-0.1-0.3c-0.1-0.1-0.2-0.2-0.2-0.2c-0.1,0-0.1,0-0.1,0l0,0c0,0,0,0,0.1,0c0,0,0.1,0,0.2-0.1
				c0.1,0,0.1,0,0.2,0c0.2,0,0.4,0.1,0.6,0.4c0.1,0.1,0.1,0.3,0.2,0.7c0.1,0.3,0.2,0.7,0.3,1.1c0.1,0.4,0.1,0.6,0.2,0.7
				c0,0.2,0,0.3,0,0.4c0,0.2,0,0.3-0.1,0.4c-0.1,0.1-0.2,0.1-0.3,0.1c-0.3,0-0.5-0.1-0.7-0.3c-0.2-0.2-0.4-0.5-0.5-0.8
				c0-0.1,0-0.1,0-0.1c0,0-0.1,0-0.2,0h-0.1C-4866.5-11.5-4866.5-11.5-4866.5-11.5z"/>
		</g>
	</g>
	<g>
		<path id="E1-MJMATHI-74" class="st0" d="M87.4-6.9c-0.1,0.1-0.1,0.1-0.1,0.1c0,0,0,0.1,0,0.2c0,0.1,0.1,0.2,0.1,0.2
			c0,0,0.1,0.1,0.1,0.1c0.1,0,0.3,0,0.7,0H89l0.3,1.1c0,0.1,0.1,0.2,0.1,0.4c0,0.2,0.1,0.3,0.1,0.4c0,0.1,0.1,0.2,0.1,0.3
			c0,0.1,0.1,0.2,0.1,0.2c0,0,0.1,0.1,0.1,0.2c0,0.1,0.1,0.1,0.2,0.1c0.1,0,0.2,0,0.3,0c0.2,0,0.3-0.1,0.3-0.2s0.1-0.2,0.1-0.3
			c0-0.1,0-0.3-0.1-0.7s-0.2-0.7-0.3-1.1l-0.1-0.5c0,0,0.2,0,0.7,0h0.7c0.1-0.1,0.1-0.1,0.1-0.2c0-0.2-0.1-0.4-0.2-0.5H90l-0.5-2
			c-0.4-1.5-0.5-2.3-0.5-2.4c0-0.4,0.1-0.6,0.4-0.6c0.3,0,0.6,0.2,0.9,0.5c0.3,0.3,0.6,0.7,0.7,1.2c0,0.1,0,0.1,0.1,0.1
			c0,0,0.1,0,0.2,0h0.1c0.1,0,0.2,0,0.2-0.1c0,0,0-0.1,0-0.2c0-0.1-0.1-0.3-0.3-0.5s-0.3-0.4-0.5-0.7c-0.2-0.2-0.4-0.4-0.7-0.6
			c-0.3-0.2-0.6-0.2-0.8-0.2c-0.3,0-0.5,0.1-0.8,0.2s-0.4,0.4-0.5,0.7c0,0.1,0,0.2,0,0.4v0.3l0.5,2c0.3,1.3,0.5,2,0.5,2
			c0,0-0.2,0-0.7,0H87.4z"/>
	</g>
	<g>
		<path id="E1-MJMAIN-2B" class="st0" d="M95.9-8.9c0,0,0,0.1,0,0.2c0,0.1,0.1,0.2,0.2,0.3h4.2v2.1l0,2.1c0.1,0.1,0.2,0.2,0.3,0.2
			c0.1,0,0.2-0.1,0.3-0.2v-4.2h4.2c0.1-0.1,0.2-0.2,0.2-0.3S105.2-8.9,105-9h-4.2v-4.2c-0.1-0.1-0.2-0.2-0.3-0.2h0h0
			c-0.1,0-0.2,0.1-0.3,0.2V-9h-4.2c-0.1,0.1-0.2,0.2-0.2,0.3V-8.9z"/>
	</g>
	<g transform="translate(7659,0)">
		<g>
			<path id="E1-MJMATHI-3D5" class="st0" d="M-7544.2-2.6c0,0.1,0.1,0.1,0.2,0.1h0.1h0.2c0.1-0.1,0.1-0.1,0.1-0.1
				c0-0.1-0.1-0.6-0.4-1.7c-0.1-0.3-0.1-0.5-0.2-0.8s-0.1-0.5-0.2-0.6l-0.1-0.2c0,0,0,0,0.1,0s0.2,0,0.4-0.1
				c0.2-0.1,0.4-0.1,0.7-0.2c0.4-0.2,0.7-0.5,1-0.8c0.3-0.4,0.4-0.8,0.4-1.4s-0.1-1-0.4-1.5c-0.3-0.5-0.6-0.9-1.1-1.2
				c-0.4-0.3-0.9-0.6-1.4-0.8c-0.5-0.2-0.9-0.3-1.3-0.3h-0.1l-0.3-1.3c-0.1-0.2-0.1-0.5-0.2-0.8c-0.1-0.3-0.1-0.5-0.2-0.5
				c0-0.1-0.1-0.1-0.2-0.1h-0.1c-0.2,0-0.3,0-0.3,0.1c0,0,0.1,0.5,0.3,1.3l0.3,1.3c0,0,0,0-0.1,0c0,0-0.1,0-0.3,0
				c-0.1,0-0.3,0.1-0.6,0.2c-0.3,0.1-0.5,0.3-0.8,0.4c-0.2,0.2-0.4,0.4-0.6,0.7c-0.2,0.3-0.3,0.7-0.3,1.1c0,0.6,0.2,1.1,0.5,1.6
				s0.7,0.9,1.1,1.2s0.9,0.5,1.4,0.7c0.5,0.2,0.9,0.3,1.2,0.3c0,0,0.1,0,0.1,0.1l0.4,1.7C-7544.3-3.2-7544.2-2.6-7544.2-2.6z
				 M-7548.2-10.1c0-0.3,0.1-0.6,0.2-0.8c0.1-0.2,0.3-0.4,0.5-0.5c0.2-0.1,0.4-0.2,0.5-0.3s0.3-0.1,0.5-0.1h0.1l1.3,5.3
				c0,0-0.1,0-0.2,0c-0.1,0-0.2,0-0.4-0.1c-0.2-0.1-0.4-0.1-0.6-0.2c-0.2-0.1-0.4-0.2-0.6-0.4c-0.2-0.2-0.4-0.4-0.6-0.6
				c-0.2-0.3-0.3-0.6-0.5-0.9C-7548.1-9.3-7548.2-9.7-7548.2-10.1z M-7542.9-8.3c0,0.4-0.1,0.7-0.2,0.9c-0.1,0.3-0.3,0.4-0.6,0.5
				c-0.2,0.1-0.4,0.2-0.5,0.2c-0.1,0-0.3,0.1-0.3,0.1h0l-0.6-2.6l-0.7-2.6c0,0,0,0,0,0c0.1,0,0.2,0,0.4,0.1c0.2,0.1,0.4,0.1,0.6,0.2
				c0.4,0.2,0.7,0.4,1,0.7c0.3,0.3,0.5,0.6,0.6,1c0.1,0.3,0.2,0.6,0.3,0.9S-7542.9-8.5-7542.9-8.3z"/>
		</g>
		<g transform="scale(0.707)">
			<path id="E1-MJMATHI-78_00000085251768701823860890000000257333952782812327_" class="st1" d="M-7541.1-11.5c0,0.3,0.2,0.6,0.5,1
				s0.7,0.5,1.1,0.6c0.2,0,0.4-0.1,0.6-0.2c0.2-0.1,0.3-0.3,0.4-0.4c0.3,0.4,0.6,0.6,1,0.6c0.2,0,0.5-0.1,0.6-0.2
				c0.2-0.1,0.3-0.3,0.3-0.6c0-0.2,0-0.3-0.1-0.5c-0.1-0.1-0.2-0.2-0.3-0.2s-0.2,0-0.2,0c-0.1,0-0.2,0-0.3,0.1
				c-0.1,0.1-0.1,0.2-0.1,0.3c0,0.3,0.2,0.5,0.5,0.6c-0.1,0.1-0.2,0.1-0.4,0.1c-0.1,0-0.1,0-0.2,0c-0.2-0.1-0.4-0.3-0.6-0.7
				c-0.4-1.5-0.6-2.3-0.6-2.5c0-0.2,0.1-0.3,0.2-0.4c0.1-0.1,0.2-0.1,0.3-0.1c0.2,0,0.5,0.1,0.7,0.3s0.4,0.5,0.5,0.8
				c0,0.1,0,0.1,0.1,0.1s0.1,0,0.2,0h0c0.1,0,0.1,0,0.1-0.1c0,0,0,0,0-0.1c-0.1-0.4-0.3-0.7-0.6-1s-0.7-0.4-1.1-0.4
				c-0.5,0-0.8,0.2-1,0.6c-0.3-0.4-0.6-0.6-0.9-0.6h-0.1c-0.3,0-0.6,0.1-0.7,0.3c-0.1,0.2-0.2,0.4-0.2,0.5c0,0.2,0.1,0.4,0.2,0.5
				c0.1,0.1,0.3,0.2,0.4,0.2c0.3,0,0.4-0.1,0.4-0.4c0-0.1,0-0.2-0.1-0.3c-0.1-0.1-0.2-0.2-0.2-0.2c-0.1,0-0.1,0-0.1,0l0,0
				c0,0,0,0,0.1,0c0,0,0.1,0,0.2-0.1c0.1,0,0.1,0,0.2,0c0.2,0,0.4,0.1,0.6,0.4c0.1,0.1,0.1,0.3,0.2,0.7c0.1,0.3,0.2,0.7,0.3,1.1
				c0.1,0.4,0.1,0.6,0.2,0.7c0,0.2,0,0.3,0,0.4c0,0.2,0,0.3-0.1,0.4c-0.1,0.1-0.2,0.1-0.3,0.1c-0.3,0-0.5-0.1-0.7-0.3
				c-0.2-0.2-0.4-0.5-0.5-0.8c0-0.1,0-0.1,0-0.1c0,0-0.1,0-0.2,0h-0.1C-7541.1-11.5-7541.1-11.5-7541.1-11.5z"/>
		</g>
	</g>
	<g>
		<path id="E1-MJMAIN-29" class="st0" d="M125.3-1.8L125.3-1.8c0.1,0,0.1,0,0.2,0h0.2l0.4-0.3c0.9-0.8,1.5-1.8,1.9-3
			c0.4-1.2,0.6-2.4,0.6-3.7c0-0.6,0-1.2-0.1-1.8c-0.1-0.6-0.2-1.1-0.3-1.5c-0.1-0.4-0.3-0.8-0.5-1.2c-0.2-0.4-0.4-0.7-0.5-0.9
			c-0.1-0.2-0.3-0.5-0.6-0.7c-0.3-0.3-0.4-0.4-0.4-0.5s-0.2-0.1-0.3-0.3c0,0,0,0-0.1-0.1h-0.2c-0.1,0-0.1,0-0.2,0c0,0-0.1,0-0.1,0
			s0,0.1,0,0.1c0,0,0.1,0.1,0.2,0.2c1.4,1.5,2.2,3.7,2.2,6.6s-0.7,5.1-2.2,6.6c-0.1,0.1-0.1,0.2-0.2,0.2
			C125.2-1.9,125.2-1.8,125.3-1.8z"/>
	</g>
	<g>
		<path id="E1-MJMAIN-2C" class="st0" d="M131-11.7c0,0,0,0.1,0,0.3c0,0.2,0.1,0.4,0.2,0.6c0.1,0.2,0.3,0.3,0.6,0.3
			c0.3,0,0.5-0.1,0.7-0.3c0.2-0.2,0.3-0.6,0.3-1.2c0-0.3,0-0.6-0.1-0.9c-0.1-0.3-0.2-0.6-0.3-0.8s-0.2-0.4-0.4-0.6s-0.2-0.3-0.3-0.4
			s-0.2-0.1-0.2-0.1c0,0-0.1,0-0.2,0.1s-0.1,0.1-0.1,0.2s0.1,0.1,0.2,0.2c0.1,0.1,0.2,0.3,0.3,0.4s0.3,0.4,0.4,0.7
			c0.1,0.3,0.2,0.6,0.2,1v0.2l0,0c0,0,0,0-0.1,0c0,0-0.1,0-0.1,0s-0.1,0-0.1,0c-0.1,0-0.1,0-0.2,0c-0.3,0-0.5,0.1-0.6,0.2L131-11.7z
			"/>
	</g>
	<g>
		<path id="E1-MJMATHI-79" class="st0" d="M150.3-8.2c0,0.1,0.1,0.4,0.2,0.7c0.1,0.3,0.4,0.6,0.7,1c0.3,0.3,0.7,0.5,1,0.5
			c0.4,0,0.7-0.1,0.9-0.3c0.2-0.2,0.4-0.5,0.4-0.9c0-0.2,0-0.3,0-0.3c0,0-0.1-0.2-0.2-0.6c-0.1-0.4-0.3-0.8-0.5-1.4
			c-0.2-0.5-0.2-0.9-0.2-1.2c0-0.4,0.1-0.7,0.2-0.8s0.3-0.2,0.6-0.3c0.2,0,0.4,0.1,0.6,0.2c0.2,0.1,0.3,0.2,0.4,0.3
			c0.1,0.1,0.2,0.3,0.4,0.5c0,0,0,0.1,0.1,0.3c0,0.2,0.1,0.5,0.2,0.8s0.2,0.7,0.3,1c0.4,1.4,0.5,2.1,0.6,2.2
			c0.1,0.3,0.3,0.4,0.6,0.4c0.1,0,0.2,0,0.3-0.1c0.1-0.1,0.1-0.1,0.2-0.2c0,0,0-0.1,0-0.1c0-0.1-0.2-1.1-0.7-2.9s-0.7-2.8-0.8-3
			c-0.3-0.8-0.7-1.4-1.4-1.8c-0.6-0.5-1.3-0.7-1.9-0.7c-0.4,0-0.8,0.1-1.1,0.3c-0.3,0.2-0.5,0.5-0.5,0.9c0,0.2,0,0.4,0.1,0.5
			c0.1,0.1,0.2,0.2,0.3,0.3c0.1,0.1,0.2,0.1,0.3,0.1c0.1,0,0.2,0,0.2,0c0.4,0,0.6-0.2,0.6-0.6c0-0.2-0.1-0.3-0.2-0.5
			c-0.1-0.1-0.2-0.2-0.3-0.3c-0.1,0-0.2-0.1-0.2-0.1l0,0c0,0,0.1-0.1,0.3-0.2c0.2-0.1,0.3-0.1,0.5-0.1h0.1c0.2,0,0.3,0,0.4,0
			c0.3,0.1,0.6,0.3,0.8,0.5c0.3,0.3,0.5,0.6,0.6,0.9c0.1,0.3,0.2,0.6,0.3,0.8c0.1,0.2,0.1,0.4,0.1,0.4l-0.1-0.1
			c-0.1,0-0.1-0.1-0.3-0.2s-0.2-0.1-0.4-0.2c-0.2,0-0.4-0.1-0.5-0.1c-0.4,0-0.8,0.1-1.1,0.3c-0.3,0.2-0.5,0.5-0.6,1
			c0,0.1,0,0.2,0,0.4c0,0.5,0.2,1.2,0.5,2.1c0.3,0.9,0.5,1.4,0.5,1.6c0,0,0,0,0,0c0,0.1,0,0.1,0,0.2c0,0,0,0.1-0.1,0.1
			s-0.1,0.1-0.2,0.1h-0.1c-0.2,0-0.4-0.1-0.6-0.3c-0.2-0.2-0.3-0.4-0.4-0.6c-0.1-0.2-0.2-0.4-0.2-0.6c-0.1-0.2-0.1-0.3-0.1-0.3
			c0,0-0.1,0-0.2,0h-0.2C150.3-8.3,150.3-8.2,150.3-8.2z"/>
	</g>
	<g>
		<path id="E1-MJMAIN-3D_00000145021929910174517990000000359275099040791186_" class="st0" d="M161.6-7.4c0,0.1,0.1,0.2,0.2,0.3
			h8.9c0.1-0.1,0.2-0.2,0.2-0.3c0-0.1-0.1-0.2-0.2-0.3l-4.4,0h-4.4C161.7-7.6,161.6-7.5,161.6-7.4z M161.6-10.1
			c0,0.1,0.1,0.2,0.2,0.3h8.9c0.1-0.1,0.2-0.2,0.2-0.3c0-0.1-0.1-0.2-0.2-0.3h-8.9C161.7-10.3,161.6-10.2,161.6-10.1z"/>
	</g>
	<g transform="translate(12426,0)">
		<g>
			<path id="E1-MJMATHI-41_00000057863207482696874690000013010030596340744625_" class="st0" d="M-12247.6-11.2
				c0-0.2,0.2-0.4,0.6-0.4c0.2,0,0.3-0.1,0.3-0.2c0,0,0-0.1,0-0.2c0-0.1-0.1-0.2-0.1-0.3c0,0-0.1-0.1-0.2-0.1c0,0-0.1,0-0.2,0
				s-0.3,0-0.5,0s-0.5,0-0.9,0c-0.7,0-1.1,0-1.3,0h-0.1c-0.1,0.1-0.1,0.1-0.1,0.2c0,0.3,0.1,0.4,0.2,0.5h0.2c0.6,0,1.1,0.3,1.4,0.7
				c0.1,0.1,0.9,1.5,2.5,4.2c1.6,2.8,2.5,4.2,2.5,4.2c0.1,0.1,0.2,0.2,0.3,0.2h0.1h0.2c0.1-0.1,0.1-0.1,0.1-0.1l0.4-4.5
				c0.3-3,0.4-4.5,0.4-4.5c0-0.1,0.3-0.2,0.9-0.2c0.2,0,0.3,0,0.3-0.1c0,0,0-0.1,0-0.2c0-0.1-0.1-0.2-0.1-0.3s-0.1,0-0.2-0.1
				c0,0-0.1,0-0.2,0s-0.3,0-0.5,0c-0.3,0-0.6,0-1,0c-0.9,0-1.4,0-1.7,0h-0.2c-0.1,0.1-0.1,0.1-0.1,0.1s0,0.1,0,0.3
				c0,0.1,0.1,0.2,0.1,0.2l0.1,0h0.3c0.5,0,0.8,0.1,0.9,0.2l-0.2,2.1h-3.3l-0.5-0.8C-12247.4-10.7-12247.6-11.1-12247.6-11.2z
				 M-12243.3-8.6c0,0.1-0.1,0.8-0.2,2.2s-0.2,2-0.2,2l-0.4-0.6c-0.1-0.3-0.4-0.7-0.9-1.5l-1.3-2.1l1.4,0
				C-12243.8-8.6-12243.3-8.6-12243.3-8.6z"/>
		</g>
		<g transform="scale(0.707)">
			<path id="E1-MJMATHI-79_00000080203833762548739240000007289258815275234459_" class="st1" d="M-12239.8-11.5
				c0,0.1,0,0.2,0.1,0.5s0.3,0.5,0.5,0.7c0.2,0.2,0.5,0.4,0.7,0.4c0.3,0,0.5-0.1,0.7-0.2c0.2-0.2,0.2-0.4,0.3-0.6c0-0.1,0-0.2,0-0.2
				c0,0-0.1-0.2-0.2-0.5c-0.1-0.3-0.2-0.6-0.3-1c-0.1-0.4-0.2-0.6-0.2-0.8c0-0.3,0-0.5,0.1-0.6s0.2-0.2,0.4-0.2c0.2,0,0.3,0,0.4,0.1
				c0.1,0.1,0.2,0.1,0.3,0.2c0.1,0.1,0.2,0.2,0.3,0.3c0,0,0,0.1,0,0.2c0,0.1,0.1,0.3,0.1,0.6c0.1,0.3,0.1,0.5,0.2,0.7
				c0.2,1,0.4,1.5,0.4,1.5c0.1,0.2,0.2,0.3,0.4,0.3c0.1,0,0.2,0,0.2-0.1c0.1,0,0.1-0.1,0.1-0.1c0,0,0-0.1,0-0.1
				c0-0.1-0.2-0.8-0.5-2.1c-0.3-1.3-0.5-2-0.6-2.1c-0.2-0.5-0.5-1-1-1.3c-0.5-0.3-0.9-0.5-1.4-0.5c-0.3,0-0.6,0.1-0.8,0.2
				c-0.2,0.1-0.3,0.4-0.3,0.7c0,0.1,0,0.3,0.1,0.4s0.1,0.2,0.2,0.2c0.1,0,0.1,0.1,0.2,0.1c0.1,0,0.1,0,0.2,0c0.3,0,0.4-0.1,0.4-0.4
				c0-0.1,0-0.2-0.1-0.3c-0.1-0.1-0.2-0.2-0.2-0.2c-0.1,0-0.1,0-0.1,0l0,0c0,0,0.1-0.1,0.2-0.1c0.1,0,0.2-0.1,0.3-0.1h0.1
				c0.1,0,0.2,0,0.3,0c0.2,0.1,0.4,0.2,0.6,0.4c0.2,0.2,0.3,0.4,0.4,0.6c0.1,0.2,0.2,0.4,0.2,0.6c0.1,0.2,0.1,0.2,0.1,0.3l-0.1,0
				c0,0-0.1-0.1-0.2-0.1c-0.1,0-0.2-0.1-0.3-0.1c-0.1,0-0.3,0-0.4,0c-0.3,0-0.6,0.1-0.8,0.2c-0.2,0.1-0.4,0.4-0.5,0.7
				c0,0,0,0.1,0,0.3c0,0.4,0.1,0.9,0.3,1.5c0.2,0.6,0.3,1,0.3,1.2c0,0,0,0,0,0c0,0.1,0,0.1,0,0.1c0,0,0,0,0,0.1s-0.1,0-0.1,0h0
				c-0.2,0-0.3-0.1-0.4-0.2s-0.2-0.3-0.3-0.4s-0.1-0.3-0.2-0.4c0-0.1-0.1-0.2-0.1-0.2c0,0-0.1,0-0.2,0L-12239.8-11.5
				C-12239.8-11.5-12239.8-11.5-12239.8-11.5z"/>
		</g>
	</g>
	<g transform="translate(13795,0)">
		<g>
			<path id="E1-MJMAIN-73_00000005966225162687649640000002216936697055299718_" class="st0" d="M-13596.3-7.8c0,0.4-0.1,0.7-0.4,1
				c-0.3,0.3-0.6,0.4-1.1,0.4c-0.3,0-0.6-0.1-0.9-0.2c-0.3-0.2-0.4-0.4-0.4-0.7c0,0,0-0.1,0-0.2c0-0.1,0.1-0.2,0.2-0.3
				c0.1-0.1,0.3-0.3,0.6-0.3c0.2,0,0.4-0.1,0.6-0.1c0.2,0,0.4-0.1,0.6-0.1s0.3-0.1,0.4-0.2c0.2-0.1,0.3-0.2,0.5-0.3s0.3-0.3,0.4-0.6
				s0.2-0.6,0.2-0.9c0-0.6-0.2-1-0.5-1.4c-0.4-0.4-0.9-0.6-1.7-0.6h-0.1c-0.5,0-0.9,0.2-1.3,0.5l-0.1-0.1l-0.1-0.1
				c-0.1-0.1-0.1-0.1-0.2-0.2l-0.2-0.1h-0.1h-0.1c0,0-0.1,0-0.1,0.1v1.1v0.8c0,0.2,0,0.3,0,0.3s0.1,0.1,0.1,0.1h0.1
				c0.1,0,0.2,0,0.2-0.1s0.1-0.1,0.1-0.2c0-0.1,0-0.2,0.1-0.4s0.1-0.4,0.3-0.6c0.3-0.5,0.8-0.7,1.4-0.7c0.9,0,1.4,0.4,1.4,1.1
				c0,0.3-0.1,0.5-0.3,0.7c-0.2,0.2-0.6,0.4-1.2,0.5s-1,0.2-1.2,0.3c-0.3,0.2-0.6,0.4-0.8,0.6c-0.2,0.3-0.3,0.6-0.3,0.9
				c0,0.4,0.1,0.7,0.2,0.9c0.2,0.3,0.4,0.4,0.6,0.6c0.2,0.1,0.5,0.2,0.7,0.3c0.2,0,0.4,0.1,0.6,0.1h0.2c0.4,0,0.7-0.1,1-0.2l0.2-0.1
				l0.1,0.1c0.1,0.1,0.2,0.2,0.3,0.2h0.1h0.1c0,0,0.1,0,0.1-0.1v-1.8l-0.1-0.1h-0.4C-13596.3-7.9-13596.3-7.9-13596.3-7.8z"/>
		</g>
		<g>
			<path id="E1-MJMAIN-69_00000038390018574289542860000010307798011149251491_" class="st0" d="M-13593.9-3.7
				c0,0.3,0.1,0.5,0.3,0.6s0.4,0.2,0.6,0.2c0.2,0,0.4-0.1,0.6-0.2c0.2-0.1,0.2-0.3,0.2-0.6c0-0.3-0.1-0.5-0.2-0.6
				c-0.2-0.1-0.4-0.2-0.6-0.2c-0.2,0-0.4,0.1-0.6,0.2C-13593.8-4.2-13593.9-4-13593.9-3.7z M-13591.5-12.2c-0.1,0-0.6,0-1.4,0
				c-0.1,0-0.3,0-0.5,0c-0.2,0-0.5,0-0.7,0l-0.3,0h-0.1v0.6h0.2c0.3,0,0.5,0,0.7,0c0.1,0,0.1,0.1,0.2,0.2s0,0.3,0,0.6v1.4v1.2
				c0,0.5,0,0.8,0,0.9s-0.1,0.2-0.2,0.3c-0.1,0.1-0.3,0.1-0.7,0.1h-0.2v0.3c0,0.2,0,0.3,0,0.3l0.1,0c0.1,0,0.2,0,0.4,0
				c0.2,0,0.3,0,0.5,0c0.2,0,0.3,0,0.5,0c0.2,0,0.3,0,0.4,0s0.1,0,0.2,0h0v-5.3c0-0.1,0.1-0.1,0.2-0.2c0.1,0,0.2,0,0.5-0.1h0.3v-0.6
				H-13591.5z"/>
		</g>
		<g>
			<path id="E1-MJMAIN-6E_00000177470512418886154420000005590684966616668328_" class="st0" d="M-13590.4-11.6h0.2
				c0.4,0,0.6,0.1,0.7,0.2v0.1c0,0.1,0,0.2,0,0.3s0,0.3,0,0.4s0,0.3,0,0.5c0,0.2,0,0.4,0,0.6c0,0.3,0,0.6,0,0.9s0,0.6,0,0.8v0.3
				c0,0.2-0.1,0.3-0.2,0.3c-0.1,0.1-0.3,0.1-0.6,0.1h-0.3v0.3c0,0.2,0,0.3,0,0.3l0.1,0c0.1,0,0.2,0,0.4,0c0.2,0,0.3,0,0.5,0
				c0.2,0,0.3,0,0.5,0c0.2,0,0.3,0,0.4,0c0.1,0,0.1,0,0.2,0h0v-0.6c0-0.4,0-0.5,0-0.5c0,0,0,0,0.1,0.1c0,0,0.1,0.1,0.2,0.2
				c0.1,0.1,0.2,0.2,0.3,0.3s0.2,0.2,0.4,0.3c0.2,0.1,0.3,0.2,0.5,0.2c0.2,0,0.4,0.1,0.7,0.1c1.1,0,1.6-0.6,1.8-1.6
				c0-0.1,0-0.7,0-1.9v-1.2c0-0.4,0-0.6,0-0.6c0-0.1,0.1-0.1,0.2-0.1c0.2,0,0.4,0,0.7,0h0.2v-0.6h-0.1l-0.3,0c-0.2,0-0.4,0-0.7,0
				s-0.4,0-0.5,0c-1,0-1.5,0-1.6,0h-0.1v0.6h0.2c0.6,0,0.8,0.1,0.8,0.2c0,0,0,0.7,0,1.9c0,1.3,0,1.9,0,2c-0.1,0.3-0.1,0.5-0.3,0.6
				c-0.1,0.1-0.2,0.2-0.3,0.2c-0.1,0-0.2,0-0.4,0c-0.4,0-0.8-0.2-1.1-0.5c-0.3-0.3-0.4-0.5-0.5-0.8c-0.1-0.3-0.1-0.6-0.1-1.2v-0.9
				v-0.8c0-0.3,0-0.5,0-0.6c0-0.1,0-0.2,0-0.2s0.1-0.1,0.1-0.1c0.2,0,0.4,0,0.7,0h0.2v-0.6h-0.1l-0.3,0c-0.2,0-0.5,0-0.7,0
				s-0.4,0-0.5,0c-1,0-1.5,0-1.6,0h-0.1v0.6H-13590.4z"/>
		</g>
	</g>
	<g>
		<path id="E1-MJMAIN-28_00000007429690690211538310000005410009249900036019_" class="st0" d="M213.1-8.7c0,0.6,0,1.2,0.1,1.8
			s0.2,1.1,0.3,1.5c0.1,0.4,0.3,0.8,0.5,1.2c0.2,0.4,0.4,0.7,0.5,0.9c0.1,0.2,0.3,0.5,0.6,0.7c0.3,0.3,0.4,0.4,0.5,0.5
			s0.2,0.2,0.3,0.3h0.2h0.1c0.1,0,0.2,0,0.2-0.1c0,0-0.1-0.1-0.2-0.3c-0.2-0.2-0.3-0.4-0.6-0.7c-0.2-0.3-0.5-0.7-0.7-1.2
			c-0.2-0.5-0.4-1.1-0.6-1.9c-0.2-0.8-0.2-1.7-0.2-2.7s0.1-1.9,0.2-2.7c0.2-0.8,0.3-1.4,0.6-1.9c0.2-0.5,0.5-0.9,0.7-1.2
			c0.2-0.3,0.4-0.6,0.6-0.7c0.2-0.2,0.2-0.3,0.2-0.3c0-0.1-0.1-0.1-0.2-0.1h0H216l-0.4,0.3c-0.9,0.8-1.5,1.8-1.9,3
			C213.3-11.2,213.1-10,213.1-8.7z"/>
	</g>
	<g transform="translate(15414,0)">
		<g>
			<path id="E1-MJMATHI-3C9_00000163777120097777402880000013433303725031434162_" class="st0" d="M-15189.9-6.9
				c0,0.2,0.1,0.4,0.3,0.6s0.4,0.3,0.6,0.3c0.2,0,0.3-0.1,0.5-0.3c0.1-0.2,0.2-0.5,0.2-0.8c0-0.3-0.1-0.7-0.2-1.2
				c-0.1-0.5-0.3-1.1-0.5-1.7s-0.6-1.2-1-1.6s-0.9-0.7-1.5-0.7c-0.7,0-1.3,0.4-1.5,1.1c0,0,0,0-0.1-0.1c-0.5-0.7-1.2-1-1.9-1
				c-1,0-1.5,0.7-1.5,2.1c0,0.8,0.2,1.7,0.6,2.6s0.7,1.4,0.9,1.5c0.1,0.1,0.2,0.1,0.3,0c0.1-0.1,0.2-0.1,0.2-0.3
				c0-0.1-0.1-0.3-0.3-0.5s-0.4-0.6-0.6-1c-0.2-0.4-0.4-0.9-0.4-1.4c0-0.1,0-0.2,0-0.3c0-0.6,0.1-1,0.3-1.2s0.5-0.3,0.8-0.3
				c0.5,0,1,0.2,1.4,0.7l0.1,0.1v0.3c0,1.3,0.3,2,0.9,2c0.3,0,0.4-0.2,0.4-0.5c0-0.2,0-0.4-0.1-0.7c-0.1-0.3-0.2-0.5-0.3-0.8
				l-0.1-0.3c0,0,0,0,0-0.1c0,0,0-0.1,0.1-0.2c0.1-0.1,0.1-0.2,0.2-0.3c0.1-0.1,0.2-0.1,0.3-0.2c0.1-0.1,0.3-0.1,0.5-0.1
				c0.6,0,1.1,0.3,1.5,1c0.4,0.7,0.6,1.3,0.6,1.8c0,0.3-0.1,0.5-0.2,0.7c-0.1,0.2-0.2,0.3-0.3,0.4
				C-15189.9-7.1-15189.9-7-15189.9-6.9z"/>
		</g>
		<g transform="scale(0.707)">
			<path id="E1-MJMATHI-79_00000169536267359467164770000015025172202209078205_" class="st1" d="M-15188-11.5c0,0.1,0,0.2,0.1,0.5
				c0.1,0.2,0.3,0.5,0.5,0.7c0.2,0.2,0.5,0.4,0.7,0.4c0.3,0,0.5-0.1,0.7-0.2s0.2-0.4,0.3-0.6c0-0.1,0-0.2,0-0.2c0,0-0.1-0.2-0.2-0.5
				c-0.1-0.3-0.2-0.6-0.3-1c-0.1-0.4-0.2-0.6-0.2-0.8c0-0.3,0-0.5,0.1-0.6c0.1-0.1,0.2-0.2,0.4-0.2c0.2,0,0.3,0,0.4,0.1
				c0.1,0.1,0.2,0.1,0.3,0.2c0.1,0.1,0.2,0.2,0.3,0.3c0,0,0,0.1,0,0.2c0,0.1,0.1,0.3,0.1,0.6c0.1,0.3,0.1,0.5,0.2,0.7
				c0.2,1,0.4,1.5,0.4,1.5c0.1,0.2,0.2,0.3,0.4,0.3c0.1,0,0.2,0,0.2-0.1c0.1,0,0.1-0.1,0.1-0.1c0,0,0-0.1,0-0.1
				c0-0.1-0.2-0.8-0.5-2.1c-0.3-1.3-0.5-2-0.6-2.1c-0.2-0.5-0.5-1-1-1.3c-0.5-0.3-0.9-0.5-1.4-0.5c-0.3,0-0.6,0.1-0.8,0.2
				c-0.2,0.1-0.3,0.4-0.3,0.7c0,0.1,0,0.3,0.1,0.4s0.1,0.2,0.2,0.2c0.1,0,0.1,0.1,0.2,0.1c0.1,0,0.1,0,0.2,0c0.3,0,0.4-0.1,0.4-0.4
				c0-0.1,0-0.2-0.1-0.3c-0.1-0.1-0.2-0.2-0.2-0.2c-0.1,0-0.1,0-0.1,0l0,0c0,0,0.1-0.1,0.2-0.1c0.1,0,0.2-0.1,0.3-0.1h0.1
				c0.1,0,0.2,0,0.3,0c0.2,0.1,0.4,0.2,0.6,0.4s0.3,0.4,0.4,0.6c0.1,0.2,0.2,0.4,0.2,0.6c0.1,0.2,0.1,0.2,0.1,0.3l-0.1,0
				c0,0-0.1-0.1-0.2-0.1c-0.1,0-0.2-0.1-0.3-0.1c-0.1,0-0.3,0-0.4,0c-0.3,0-0.6,0.1-0.8,0.2c-0.2,0.1-0.4,0.4-0.5,0.7
				c0,0,0,0.1,0,0.3c0,0.4,0.1,0.9,0.3,1.5c0.2,0.6,0.3,1,0.3,1.2c0,0,0,0,0,0c0,0.1,0,0.1,0,0.1c0,0,0,0,0,0.1s-0.1,0-0.1,0h0
				c-0.2,0-0.3-0.1-0.4-0.2s-0.2-0.3-0.3-0.4s-0.1-0.3-0.2-0.4s-0.1-0.2-0.1-0.2c0,0-0.1,0-0.2,0L-15188-11.5
				C-15187.9-11.5-15188-11.5-15188-11.5z"/>
		</g>
	</g>
	<g>
		<path id="E1-MJMATHI-74_00000000919606257770708080000009427317954022779283_" class="st0" d="M232.5-6.9
			c-0.1,0.1-0.1,0.1-0.1,0.1c0,0,0,0.1,0,0.2c0,0.1,0.1,0.2,0.1,0.2c0,0,0.1,0.1,0.1,0.1c0.1,0,0.3,0,0.7,0h0.7l0.3,1.1
			c0,0.1,0.1,0.2,0.1,0.4s0.1,0.3,0.1,0.4c0,0.1,0.1,0.2,0.1,0.3c0,0.1,0.1,0.2,0.1,0.2c0,0,0.1,0.1,0.1,0.2s0.1,0.1,0.2,0.1
			c0.1,0,0.2,0,0.3,0c0.2,0,0.3-0.1,0.3-0.2c0.1-0.1,0.1-0.2,0.1-0.3c0-0.1,0-0.3-0.1-0.7s-0.2-0.7-0.3-1.1l-0.1-0.5
			c0,0,0.2,0,0.7,0h0.7c0.1-0.1,0.1-0.1,0.1-0.2c0-0.2-0.1-0.4-0.2-0.5h-1.5l-0.5-2c-0.4-1.5-0.5-2.3-0.5-2.4c0-0.4,0.1-0.6,0.4-0.6
			c0.3,0,0.6,0.2,0.9,0.5c0.3,0.3,0.6,0.7,0.7,1.2c0,0.1,0,0.1,0.1,0.1c0,0,0.1,0,0.2,0h0.1c0.1,0,0.2,0,0.2-0.1c0,0,0-0.1,0-0.2
			c0-0.1-0.1-0.3-0.3-0.5s-0.3-0.4-0.5-0.7c-0.2-0.2-0.4-0.4-0.7-0.6c-0.3-0.2-0.6-0.2-0.8-0.2c-0.3,0-0.5,0.1-0.8,0.2
			s-0.4,0.4-0.5,0.7c0,0.1,0,0.2,0,0.4v0.3l0.5,2c0.3,1.3,0.5,2,0.5,2c0,0-0.2,0-0.7,0H232.5z"/>
	</g>
	<g>
		<path id="E1-MJMAIN-2B_00000129188386889200411920000003668698301751927738_" class="st0" d="M241.1-8.9c0,0,0,0.1,0,0.2
			c0,0.1,0.1,0.2,0.2,0.3h4.2v2.1l0,2.1c0.1,0.1,0.2,0.2,0.3,0.2c0.1,0,0.2-0.1,0.3-0.2v-4.2h4.2c0.1-0.1,0.2-0.2,0.2-0.3
			s-0.1-0.2-0.2-0.3H246v-4.2c-0.1-0.1-0.2-0.2-0.3-0.2h0h0c-0.1,0-0.2,0.1-0.3,0.2V-9h-4.2c-0.1,0.1-0.2,0.2-0.2,0.3V-8.9z"/>
	</g>
	<g transform="translate(18073,0)">
		<g>
			<path id="E1-MJMATHI-3D5_00000035522774645451225340000006893369362688015507_" class="st0" d="M-17813.1-2.6
				c0,0.1,0.1,0.1,0.2,0.1h0.1h0.2c0.1-0.1,0.1-0.1,0.1-0.1c0-0.1-0.1-0.6-0.4-1.7c-0.1-0.3-0.1-0.5-0.2-0.8
				c-0.1-0.3-0.1-0.5-0.2-0.6l-0.1-0.2c0,0,0,0,0.1,0c0.1,0,0.2,0,0.4-0.1c0.2-0.1,0.4-0.1,0.7-0.2c0.4-0.2,0.7-0.5,1-0.8
				c0.3-0.4,0.4-0.8,0.4-1.4s-0.1-1-0.4-1.5c-0.3-0.5-0.6-0.9-1.1-1.2c-0.4-0.3-0.9-0.6-1.4-0.8c-0.5-0.2-0.9-0.3-1.3-0.3h-0.1
				l-0.3-1.3c-0.1-0.2-0.1-0.5-0.2-0.8c-0.1-0.3-0.1-0.5-0.2-0.5c0-0.1-0.1-0.1-0.2-0.1h-0.1c-0.2,0-0.3,0-0.3,0.1
				c0,0,0.1,0.5,0.3,1.3l0.3,1.3c0,0,0,0-0.1,0c0,0-0.1,0-0.3,0s-0.3,0.1-0.6,0.2s-0.5,0.3-0.8,0.4c-0.2,0.2-0.4,0.4-0.6,0.7
				c-0.2,0.3-0.3,0.7-0.3,1.1c0,0.6,0.2,1.1,0.5,1.6s0.7,0.9,1.1,1.2c0.4,0.3,0.9,0.5,1.4,0.7c0.5,0.2,0.9,0.3,1.2,0.3
				c0,0,0.1,0,0.1,0.1l0.4,1.7C-17813.2-3.2-17813.1-2.6-17813.1-2.6z M-17817.1-10.1c0-0.3,0.1-0.6,0.2-0.8
				c0.1-0.2,0.3-0.4,0.5-0.5c0.2-0.1,0.4-0.2,0.5-0.3c0.1,0,0.3-0.1,0.5-0.1h0.1l1.3,5.3c0,0-0.1,0-0.2,0c-0.1,0-0.2,0-0.4-0.1
				c-0.2-0.1-0.4-0.1-0.6-0.2c-0.2-0.1-0.4-0.2-0.6-0.4c-0.2-0.2-0.4-0.4-0.6-0.6c-0.2-0.3-0.3-0.6-0.5-0.9
				C-17817-9.3-17817.1-9.7-17817.1-10.1z M-17811.8-8.3c0,0.4-0.1,0.7-0.2,0.9s-0.3,0.4-0.6,0.5c-0.2,0.1-0.4,0.2-0.5,0.2
				c-0.1,0-0.3,0.1-0.3,0.1h0l-0.6-2.6l-0.7-2.6c0,0,0,0,0,0c0.1,0,0.2,0,0.4,0.1c0.2,0.1,0.4,0.1,0.6,0.2c0.4,0.2,0.7,0.4,1,0.7
				c0.3,0.3,0.5,0.6,0.6,1c0.1,0.3,0.2,0.6,0.3,0.9C-17811.8-8.7-17811.8-8.5-17811.8-8.3z"/>
		</g>
		<g transform="scale(0.707)">
			<path id="E1-MJMATHI-79_00000049215161356360864820000013801310130171979963_" class="st1" d="M-17810.3-11.5
				c0,0.1,0,0.2,0.1,0.5c0.1,0.2,0.3,0.5,0.5,0.7c0.2,0.2,0.5,0.4,0.7,0.4c0.3,0,0.5-0.1,0.7-0.2s0.2-0.4,0.3-0.6c0-0.1,0-0.2,0-0.2
				c0,0-0.1-0.2-0.2-0.5s-0.2-0.6-0.3-1c-0.1-0.4-0.2-0.6-0.2-0.8c0-0.3,0-0.5,0.1-0.6s0.2-0.2,0.4-0.2c0.2,0,0.3,0,0.4,0.1
				c0.1,0.1,0.2,0.1,0.3,0.2c0.1,0.1,0.2,0.2,0.3,0.3c0,0,0,0.1,0,0.2c0,0.1,0.1,0.3,0.1,0.6s0.1,0.5,0.2,0.7c0.2,1,0.4,1.5,0.4,1.5
				c0.1,0.2,0.2,0.3,0.4,0.3c0.1,0,0.2,0,0.2-0.1c0.1,0,0.1-0.1,0.1-0.1c0,0,0-0.1,0-0.1c0-0.1-0.2-0.8-0.5-2.1s-0.5-2-0.6-2.1
				c-0.2-0.5-0.5-1-1-1.3c-0.5-0.3-0.9-0.5-1.4-0.5c-0.3,0-0.6,0.1-0.8,0.2c-0.2,0.1-0.3,0.4-0.3,0.7c0,0.1,0,0.3,0.1,0.4
				c0,0.1,0.1,0.2,0.2,0.2c0.1,0,0.1,0.1,0.2,0.1c0.1,0,0.1,0,0.2,0c0.3,0,0.4-0.1,0.4-0.4c0-0.1,0-0.2-0.1-0.3
				c-0.1-0.1-0.2-0.2-0.2-0.2c-0.1,0-0.1,0-0.1,0l0,0c0,0,0.1-0.1,0.2-0.1c0.1,0,0.2-0.1,0.3-0.1h0.1c0.1,0,0.2,0,0.3,0
				c0.2,0.1,0.4,0.2,0.6,0.4s0.3,0.4,0.4,0.6c0.1,0.2,0.2,0.4,0.2,0.6c0.1,0.2,0.1,0.2,0.1,0.3l-0.1,0c0,0-0.1-0.1-0.2-0.1
				c-0.1,0-0.2-0.1-0.3-0.1c-0.1,0-0.3,0-0.4,0c-0.3,0-0.6,0.1-0.8,0.2c-0.2,0.1-0.4,0.4-0.5,0.7c0,0,0,0.1,0,0.3
				c0,0.4,0.1,0.9,0.3,1.5c0.2,0.6,0.3,1,0.3,1.2c0,0,0,0,0,0c0,0.1,0,0.1,0,0.1c0,0,0,0,0,0.1c0,0-0.1,0-0.1,0h0
				c-0.2,0-0.3-0.1-0.4-0.2s-0.2-0.3-0.3-0.4s-0.1-0.3-0.2-0.4s-0.1-0.2-0.1-0.2c0,0-0.1,0-0.2,0L-17810.3-11.5
				C-17810.2-11.5-17810.3-11.5-17810.3-11.5z"/>
		</g>
	</g>
	<g>
		<path id="E1-MJMAIN-29_00000036248564433415700280000014909845250380129184_" class="st0" d="M269.7-1.8L269.7-1.8
			c0.1,0,0.1,0,0.2,0h0.2l0.4-0.3c0.9-0.8,1.5-1.8,1.9-3c0.4-1.2,0.6-2.4,0.6-3.7c0-0.6,0-1.2-0.1-1.8c-0.1-0.6-0.2-1.1-0.3-1.5
			c-0.1-0.4-0.3-0.8-0.5-1.2c-0.2-0.4-0.4-0.7-0.5-0.9c-0.1-0.2-0.3-0.5-0.6-0.7c-0.3-0.3-0.4-0.4-0.4-0.5s-0.2-0.1-0.3-0.3
			c0,0,0,0-0.1-0.1h-0.2c-0.1,0-0.1,0-0.2,0s-0.1,0-0.1,0s0,0.1,0,0.1c0,0,0.1,0.1,0.2,0.2c1.4,1.5,2.2,3.7,2.2,6.6
			s-0.7,5.1-2.2,6.6c-0.1,0.1-0.1,0.2-0.2,0.2C269.6-1.9,269.6-1.8,269.7-1.8z"/>
	</g>
</g>
</svg>
