<?xml version="1.0" encoding="utf-8"?>
<!-- Generator: Adobe Illustrator 28.1.0, SVG Export Plug-In . SVG Version: 6.00 Build 0)  -->
<svg version="1.1" id="Livello_1" focusable="false"
	 xmlns="http://www.w3.org/2000/svg" xmlns:xlink="http://www.w3.org/1999/xlink" x="0px" y="0px" viewBox="0 0 275.8 18.1"
	 style="enable-background:new 0 0 275.8 18.1;" xml:space="preserve">
<style type="text/css">
	.st0{fill:#FFFFFF;stroke:#FFFFFF;stroke-width:1.393378e-02;stroke-miterlimit:10;}
	.st1{fill:#FFFFFF;stroke:#FFFFFF;stroke-width:9.644195e-03;stroke-miterlimit:7.07;}
	.st2{fill:#FFFFFF;stroke:#FFFFFF;stroke-width:8.029094e-03;stroke-miterlimit:7.07;}
</style>
<g>
	<path id="E1-MJMATHI-78" class="st0" d="M3.1,8c0.1-0.4,0.3-0.8,0.8-1.4s1-0.8,1.6-0.8c0.3,0,0.6,0.1,0.9,0.3S6.8,6.5,7,6.7
		c0.4-0.6,0.9-0.9,1.4-0.9C8.7,5.9,9,6,9.3,6.2C9.5,6.4,9.7,6.7,9.7,7S9.6,7.5,9.5,7.7C9.3,7.8,9.2,7.9,9.1,8C9,8,8.9,8,8.8,8
		C8.6,8,8.4,8,8.3,7.9C8.2,7.8,8.2,7.6,8.2,7.5c0-0.4,0.2-0.7,0.7-0.9C8.8,6.5,8.6,6.4,8.3,6.4c-0.1,0-0.2,0-0.3,0
		C7.7,6.6,7.4,6.9,7.3,7.3c-0.6,2.1-0.8,3.3-0.8,3.6c0,0.3,0.1,0.4,0.2,0.6s0.3,0.2,0.5,0.2c0.3,0,0.7-0.2,1-0.5s0.6-0.7,0.7-1.1
		C8.9,10,9,10,9,9.9c0,0,0.1,0,0.2,0h0.1c0.1,0,0.2,0,0.2,0.1c0,0,0,0.1,0,0.2c-0.1,0.5-0.4,1-0.9,1.4c-0.5,0.4-1,0.6-1.6,0.6
		c-0.7,0-1.1-0.3-1.5-0.9c-0.4,0.6-0.8,0.9-1.3,0.9l0,0c-0.5,0-0.8-0.1-1-0.4S2.9,11.3,2.9,11s0.1-0.5,0.3-0.7
		C3.3,10.1,3.5,10,3.8,10c0.4,0,0.6,0.2,0.6,0.6c0,0.2-0.1,0.3-0.2,0.5c-0.1,0.1-0.2,0.2-0.3,0.3c-0.1,0-0.2,0.1-0.2,0.1l0,0
		c0,0,0,0,0.1,0.1c0.1,0,0.1,0.1,0.2,0.1s0.2,0.1,0.3,0c0.3,0,0.6-0.2,0.9-0.6c0.1-0.1,0.2-0.5,0.3-0.9c0.1-0.5,0.3-1,0.4-1.5
		c0-0.6,0.1-0.9,0.1-1c0-0.3,0.1-0.4,0.1-0.5c0-0.3-0.1-0.4-0.2-0.6S5.6,6.4,5.4,6.4c-0.4,0-0.7,0.1-1,0.4C4,7.1,3.8,7.5,3.7,8
		c0,0.1,0,0.1-0.1,0.1c0,0-0.1,0-0.2,0H3.2C3.1,8.1,3.1,8,3.1,8z"/>
</g>
<g>
	<path id="E1-MJMAIN-3D" class="st0" d="M15,7.2c0-0.1,0.1-0.2,0.2-0.3h8.9c0.1,0.1,0.2,0.2,0.2,0.3c0,0.1-0.1,0.2-0.2,0.3h-4.4
		h-4.4C15.1,7.4,15,7.3,15,7.2z M15,9.9c0-0.1,0.1-0.2,0.2-0.3h8.9c0.1,0.1,0.2,0.2,0.2,0.3s-0.1,0.2-0.2,0.3h-8.9
		C15.1,10.1,15,10,15,9.9z"/>
</g>
<g>
	<path id="E1-MJMATHI-41" class="st0" d="M31.8,11c0,0.2,0.2,0.4,0.6,0.4c0.2,0,0.3,0.1,0.3,0.2c0,0,0,0.1,0,0.2
		c0,0.1-0.1,0.2-0.1,0.3c0,0-0.1,0.1-0.2,0.1c0,0-0.1,0-0.2,0s-0.3,0-0.5,0s-0.5,0-0.9,0c-0.7,0-1.1,0-1.3,0h-0.1
		c-0.1-0.1-0.1-0.1-0.1-0.2c0-0.3,0.1-0.4,0.2-0.5h0.2c0.7,0,1.1-0.3,1.4-0.7c0.1-0.1,0.9-1.5,2.5-4.2s2.5-4.2,2.5-4.2
		c0.1-0.1,0.2-0.2,0.3-0.2h0.1h0.2c0.1,0.1,0.1,0.1,0.1,0.1l0.4,4.5c0.3,3,0.4,4.5,0.4,4.5c0,0.1,0.3,0.2,0.9,0.2
		c0.2,0,0.3,0,0.3,0.1c0,0,0,0.1,0,0.2c0,0.1-0.1,0.2-0.1,0.3c0,0-0.1,0-0.2,0.1c0,0-0.1,0-0.2,0s-0.3,0-0.5,0c-0.3,0-0.6,0-1,0
		c-0.9,0-1.4,0-1.7,0h-0.2c-0.1-0.1-0.1-0.1-0.1-0.1s0-0.1,0-0.3c0-0.1,0.1-0.2,0.1-0.2H35h0.3c0.5,0,0.8-0.1,0.9-0.2L36,9.3h-3.3
		l-0.5,0.8C32,10.5,31.8,10.9,31.8,11z M36.1,8.4c0-0.1-0.1-0.8-0.2-2.2c-0.1-1.3-0.2-2-0.2-2l-0.4,0.6c-0.1,0.3-0.4,0.7-0.9,1.5
		l-1.3,2.1h1.4C35.7,8.4,36.1,8.4,36.1,8.4z"/>
</g>
<g transform="scale(0.707)">
	<path id="E1-MJMATHI-78_00000120549403399472746200000010232956610531921836_" class="st1" d="M56.2,15.8c0-0.4,0.3-0.8,0.7-1.4
		c0.4-0.6,1-0.7,1.5-0.8c0.3,0,0.6,0.1,0.8,0.3c0.3,0.1,0.4,0.4,0.6,0.6c0.4-0.6,0.8-0.8,1.4-0.8c0.3,0,0.7,0.1,0.8,0.3
		c0.3,0.1,0.4,0.4,0.4,0.8c0,0.3,0,0.4-0.1,0.7c-0.1,0.1-0.3,0.3-0.4,0.3c-0.1,0-0.3,0-0.3,0c-0.1,0-0.3,0-0.4-0.1
		c-0.1-0.1-0.1-0.3-0.1-0.4c0-0.4,0.3-0.7,0.7-0.8c-0.1-0.1-0.3-0.1-0.6-0.1c-0.1,0-0.1,0-0.3,0c-0.3,0.1-0.6,0.4-0.8,1
		c-0.6,2.1-0.8,3.2-0.8,3.5s0.1,0.4,0.3,0.6c0.1,0.1,0.3,0.1,0.4,0.1c0.3,0,0.7-0.1,1-0.4s0.6-0.7,0.7-1.1c0-0.1,0-0.1,0.1-0.1
		c0,0,0.1,0,0.3,0l0,0c0.1,0,0.1,0,0.1,0.1c0,0,0,0,0,0.1c-0.1,0.6-0.4,1-0.8,1.4c-0.4,0.4-1,0.6-1.5,0.6c-0.7,0-1.1-0.3-1.4-0.8
		c-0.4,0.6-0.8,0.8-1.2,0.8h-0.1c-0.4,0-0.8-0.1-1-0.4c-0.1-0.3-0.3-0.6-0.3-0.7c0-0.3,0.1-0.6,0.3-0.7c0.1-0.1,0.4-0.3,0.6-0.3
		c0.4,0,0.6,0.1,0.6,0.6c0,0.1,0,0.3-0.1,0.4c-0.1,0.1-0.3,0.3-0.3,0.3c-0.1,0-0.1,0-0.1,0l0,0c0,0,0,0,0.1,0c0,0,0.1,0,0.3,0.1
		c0.1,0.1,0.1,0,0.3,0c0.3,0,0.6-0.1,0.8-0.6c0.1-0.1,0.1-0.4,0.3-1c0.1-0.6,0.3-1,0.4-1.5c0.1-0.6,0.1-0.8,0.3-1c0-0.3,0-0.4,0-0.6
		c0-0.3,0-0.4-0.1-0.6c-0.1-0.1-0.3-0.1-0.4-0.1c-0.4,0-0.7,0.1-1,0.4c-0.3,0.3-0.6,0.7-0.7,1.1c0,0.1,0,0.1,0,0.1s-0.1,0-0.3,0
		h-0.1C56.2,15.8,56.2,15.8,56.2,15.8z"/>
</g>
<g transform="scale(0.707)">
	<path id="E1-MJMATHI-78_00000146489220716632912080000000853184849569546925_" class="st1" d="M112.8,15.8c0-0.4,0.3-0.8,0.7-1.4
		c0.4-0.6,1-0.7,1.5-0.8c0.3,0,0.6,0.1,0.8,0.3c0.3,0.1,0.4,0.4,0.6,0.6c0.4-0.6,0.8-0.8,1.4-0.8c0.3,0,0.7,0.1,0.8,0.3
		c0.3,0.1,0.4,0.4,0.4,0.8c0,0.3,0,0.4-0.1,0.7c-0.1,0.1-0.3,0.3-0.4,0.3c-0.1,0-0.3,0-0.3,0c-0.1,0-0.3,0-0.4-0.1
		c-0.1-0.1-0.1-0.3-0.1-0.4c0-0.4,0.3-0.7,0.7-0.8c-0.1-0.1-0.3-0.1-0.6-0.1c-0.1,0-0.1,0-0.3,0c-0.3,0.1-0.6,0.4-0.8,1
		c-0.6,2.1-0.8,3.2-0.8,3.5s0.1,0.4,0.3,0.6c0.1,0.1,0.3,0.1,0.4,0.1c0.3,0,0.7-0.1,1-0.4c0.3-0.3,0.6-0.7,0.7-1.1
		c0-0.1,0-0.1,0.1-0.1c0,0,0.1,0,0.3,0l0,0c0.1,0,0.1,0,0.1,0.1c0,0,0,0,0,0.1c-0.1,0.6-0.4,1-0.8,1.4s-1,0.6-1.5,0.6
		c-0.7,0-1.1-0.3-1.4-0.8c-0.4,0.6-0.8,0.8-1.2,0.8h-0.1c-0.4,0-0.8-0.1-1-0.4s-0.3-0.6-0.3-0.7c0-0.3,0.1-0.6,0.3-0.7
		c0.1-0.1,0.4-0.3,0.6-0.3c0.4,0,0.6,0.1,0.6,0.6c0,0.1,0,0.3-0.1,0.4s-0.3,0.3-0.3,0.3c-0.1,0-0.1,0-0.1,0l0,0c0,0,0,0,0.1,0
		c0,0,0.1,0,0.3,0.1s0.1,0,0.3,0c0.3,0,0.6-0.1,0.8-0.6c0.1-0.1,0.1-0.4,0.3-1s0.3-1,0.4-1.5c0.1-0.6,0.1-0.8,0.3-1
		c0-0.3,0-0.4,0-0.6c0-0.3,0-0.4-0.1-0.6c-0.1-0.1-0.3-0.1-0.4-0.1c-0.4,0-0.7,0.1-1,0.4c-0.3,0.3-0.6,0.7-0.7,1.1
		c0,0.1,0,0.1,0,0.1s-0.1,0-0.3,0h-0.1C112.8,15.8,112.8,15.8,112.8,15.8z"/>
</g>
<g transform="scale(0.707)">
	<path id="E1-MJMATHI-78_00000103242886964629315730000013072829062692701873_" class="st1" d="M166,15.8c0-0.4,0.3-0.8,0.7-1.4
		s1-0.7,1.5-0.8c0.3,0,0.6,0.1,0.8,0.3c0.3,0.1,0.4,0.4,0.6,0.6c0.4-0.6,0.8-0.8,1.4-0.8c0.3,0,0.7,0.1,0.8,0.3
		c0.3,0.1,0.4,0.4,0.4,0.8c0,0.3,0,0.4-0.1,0.7c-0.1,0.1-0.3,0.3-0.4,0.3c-0.1,0-0.3,0-0.3,0c-0.1,0-0.3,0-0.4-0.1
		c-0.1-0.1-0.1-0.3-0.1-0.4c0-0.4,0.3-0.7,0.7-0.8c-0.1-0.1-0.3-0.1-0.6-0.1c-0.1,0-0.1,0-0.3,0c-0.3,0.1-0.6,0.4-0.8,1
		c-0.6,2.1-0.8,3.2-0.8,3.5s0.1,0.4,0.3,0.6c0.1,0.1,0.3,0.1,0.4,0.1c0.3,0,0.7-0.1,1-0.4c0.3-0.3,0.6-0.7,0.7-1.1
		c0-0.1,0-0.1,0.1-0.1c0,0,0.1,0,0.3,0l0,0c0.1,0,0.1,0,0.1,0.1c0,0,0,0,0,0.1c-0.1,0.6-0.4,1-0.8,1.4c-0.4,0.4-1,0.6-1.5,0.6
		c-0.7,0-1.1-0.3-1.4-0.8c-0.4,0.6-0.8,0.8-1.2,0.8h-0.1c-0.4,0-0.8-0.1-1-0.4s-0.3-0.6-0.3-0.7c0-0.3,0.1-0.6,0.3-0.7
		c0.1-0.1,0.4-0.3,0.6-0.3c0.4,0,0.6,0.1,0.6,0.6c0,0.1,0,0.3-0.1,0.4c-0.1,0.1-0.3,0.3-0.3,0.3c-0.1,0-0.1,0-0.1,0l0,0
		c0,0,0,0,0.1,0c0,0,0.1,0,0.3,0.1c0.1,0.1,0.1,0,0.3,0c0.3,0,0.6-0.1,0.8-0.6c0.1-0.1,0.1-0.4,0.3-1c0.1-0.6,0.3-1,0.4-1.5
		c0.1-0.6,0.1-0.8,0.3-1c0-0.3,0-0.4,0-0.6c0-0.3,0-0.4-0.1-0.6c-0.1-0.1-0.3-0.1-0.4-0.1c-0.4,0-0.7,0.1-1,0.4s-0.6,0.7-0.7,1.1
		c0,0.1,0,0.1,0,0.1s-0.1,0-0.3,0h-0.1C166,15.8,166,15.8,166,15.8z"/>
</g>
<g transform="translate(3328,0)">
	<g>
		<path id="E1-MJMAIN-73" class="st0" d="M-3275.1,7.6c0-0.4-0.1-0.7-0.4-1c-0.3-0.3-0.6-0.4-1.1-0.4c-0.3,0-0.6,0.1-0.9,0.2
			c-0.3,0.2-0.4,0.4-0.4,0.7c0,0,0,0.1,0,0.2s0.1,0.2,0.2,0.3c0.1,0.1,0.3,0.3,0.6,0.3c0.2,0,0.4,0.1,0.6,0.1c0.2,0,0.4,0.1,0.6,0.1
			c0.2,0,0.3,0.1,0.4,0.2c0.2,0.1,0.3,0.2,0.5,0.3c0.1,0.1,0.3,0.3,0.4,0.6s0.2,0.6,0.2,0.9c0,0.6-0.2,1-0.5,1.4
			c-0.4,0.4-0.9,0.6-1.7,0.6h-0.1c-0.5,0-0.9-0.2-1.3-0.5l-0.1,0.1l-0.1,0.1c-0.1,0.1-0.1,0.1-0.2,0.2l-0.2,0.1h-0.1h-0.1
			c0,0-0.1,0-0.1-0.1v-1.1v-0.8c0-0.2,0-0.3,0-0.3l0.1-0.1h0.1c0.1,0,0.2,0,0.2,0.1c0,0,0.1,0.1,0.1,0.2s0,0.2,0.1,0.4
			s0.1,0.4,0.3,0.6c0.3,0.5,0.8,0.7,1.4,0.7c0.9,0,1.4-0.4,1.4-1.1c0-0.3-0.1-0.5-0.3-0.7s-0.6-0.4-1.2-0.5s-1-0.2-1.2-0.3
			c-0.3-0.2-0.6-0.4-0.8-0.6c-0.2-0.3-0.3-0.6-0.3-0.9c0-0.4,0.1-0.7,0.2-0.9c0.2-0.3,0.4-0.4,0.6-0.6c0.2-0.1,0.5-0.2,0.7-0.3
			c0.2,0,0.4-0.1,0.6-0.1h0.2c0.4,0,0.7,0.1,1,0.2l0.2,0.1l0.1-0.1c0.1-0.1,0.2-0.2,0.3-0.2h0.1h0.1c0,0,0.1,0,0.1,0.1v1.8l-0.1,0.1
			h-0.4C-3275.1,7.7-3275.1,7.7-3275.1,7.6z"/>
	</g>
	<g>
		<path id="E1-MJMAIN-69" class="st0" d="M-3272.8,3.5c0-0.3,0.1-0.5,0.3-0.6s0.4-0.2,0.6-0.2c0.2,0,0.4,0.1,0.6,0.2
			s0.2,0.3,0.2,0.6s-0.1,0.5-0.2,0.6c-0.2,0.1-0.4,0.2-0.6,0.2s-0.4-0.1-0.6-0.2C-3272.7,4-3272.8,3.8-3272.8,3.5z M-3270.3,12
			c-0.1,0-0.6,0-1.4,0c-0.1,0-0.3,0-0.5,0s-0.5,0-0.7,0h-0.3h-0.1v-0.6h0.2c0.3,0,0.5,0,0.7,0c0.1,0,0.1-0.1,0.2-0.2s0-0.3,0-0.6
			V9.2V8c0-0.5,0-0.8,0-0.9s-0.1-0.2-0.2-0.3c-0.1-0.1-0.3-0.1-0.7-0.1h-0.2V6.4c0-0.2,0-0.3,0-0.3h0.1c0.1,0,0.2,0,0.4,0
			s0.3,0,0.5,0s0.3,0,0.5,0s0.3,0,0.4,0c0.1,0,0.1,0,0.2,0l0,0v5.3c0,0.1,0.1,0.1,0.2,0.2c0.1,0,0.2,0,0.5,0.1h0.3L-3270.3,12
			L-3270.3,12z"/>
	</g>
	<g>
		<path id="E1-MJMAIN-6E" class="st0" d="M-3269.3,11.4h0.2c0.4,0,0.6-0.1,0.7-0.2v-0.1c0-0.1,0-0.2,0-0.3s0-0.3,0-0.4s0-0.3,0-0.5
			s0-0.4,0-0.6c0-0.3,0-0.6,0-0.9c0-0.3,0-0.6,0-0.8V7.3c0-0.2-0.1-0.3-0.2-0.3c-0.1-0.1-0.3-0.1-0.6-0.1h-0.3V6.6
			c0-0.2,0-0.3,0-0.3h0.1c0.1,0,0.2,0,0.4,0s0.3,0,0.5,0s0.3,0,0.5,0s0.3,0,0.4,0c0.1,0,0.1,0,0.2,0l0,0v0.6c0,0.4,0,0.5,0,0.5
			s0,0,0.1-0.1c0,0,0.1-0.1,0.2-0.2c0.1-0.1,0.2-0.2,0.3-0.3c0.1-0.1,0.2-0.2,0.4-0.3c0.2-0.1,0.3-0.2,0.5-0.2s0.4-0.1,0.7-0.1
			c1.1,0,1.6,0.6,1.8,1.6c0,0.1,0,0.7,0,1.9v1.2c0,0.4,0,0.6,0,0.6s0.1,0.1,0.2,0.1c0.2,0,0.4,0,0.7,0h0.2V12h-0.1h-0.3
			c-0.2,0-0.4,0-0.7,0s-0.4,0-0.5,0c-1,0-1.5,0-1.6,0h-0.1v-0.6h0.2c0.6,0,0.9-0.1,0.9-0.2c0,0,0-0.7,0-1.9c0-1.3,0-1.9,0-2
			c-0.1-0.3-0.1-0.5-0.3-0.6s-0.2-0.2-0.3-0.2s-0.2,0-0.4,0c-0.4,0-0.8,0.2-1.1,0.5s-0.4,0.5-0.5,0.8c-0.1,0.3-0.1,0.6-0.1,1.2v0.9
			v0.8c0,0.3,0,0.5,0,0.6s0,0.2,0,0.2l0.1,0.1c0.2,0,0.4,0,0.7,0h0.2V12h-0.1h-0.3c-0.2,0-0.5,0-0.7,0c-0.3,0-0.4,0-0.5,0
			c-1,0-1.5,0-1.6,0h-0.1v-0.6H-3269.3z"/>
	</g>
</g>
<g>
	<path id="E1-MJMAIN-28" class="st0" d="M67.2,8.5c0-0.6,0-1.2,0.1-1.8s0.2-1.1,0.3-1.5S68,4.4,68.2,4s0.4-0.7,0.5-0.9
		s0.3-0.5,0.6-0.7c0.3-0.3,0.4-0.4,0.5-0.5c0-0.1,0.2-0.2,0.3-0.3h0.2h0.1c0.1,0,0.2,0,0.2,0.1c0,0-0.1,0.1-0.2,0.3
		c-0.2,0.2-0.3,0.4-0.6,0.7S69.3,3.5,69,3.9s-0.4,1.1-0.5,2s-0.2,1.7-0.2,2.7s0.1,1.9,0.2,2.7c0.2,0.8,0.3,1.4,0.6,1.9
		c0.2,0.5,0.5,0.9,0.7,1.2s0.4,0.6,0.6,0.7c0.2,0.2,0.2,0.3,0.2,0.3c0,0.1-0.1,0.1-0.2,0.1l0,0h-0.2l-0.4-0.3
		c-0.9-0.8-1.5-1.8-1.9-3C67.4,11,67.2,9.8,67.2,8.5z"/>
</g>
<g transform="translate(4947,0)">
	<g>
		<path id="E1-MJMATHI-3C9" class="st0" d="M-4868.8,6.7c0-0.2,0.1-0.4,0.3-0.6c0.2-0.2,0.4-0.3,0.6-0.3s0.3,0.1,0.5,0.3
			c0.1,0.2,0.2,0.5,0.2,0.8s-0.1,0.7-0.2,1.2s-0.3,1.1-0.5,1.7c-0.2,0.6-0.6,1.2-1,1.6s-0.9,0.7-1.5,0.7c-0.7,0-1.3-0.4-1.5-1.1
			c0,0,0,0-0.1,0.1c-0.5,0.7-1.2,1-1.9,1c-1,0-1.5-0.7-1.5-2.1c0-0.8,0.2-1.7,0.6-2.6s0.7-1.4,0.9-1.5c0.1-0.1,0.2-0.1,0.3,0
			c0.1,0.1,0.2,0.1,0.2,0.3c0,0.1-0.1,0.3-0.3,0.5c-0.2,0.3-0.4,0.6-0.6,1s-0.4,0.9-0.4,1.4c0,0.1,0,0.2,0,0.3c0,0.6,0.1,1,0.3,1.2
			c0.2,0.2,0.5,0.3,0.8,0.3c0.5,0,1-0.2,1.4-0.7l0.1-0.1V9.8c0-1.3,0.3-2,0.9-2c0.3,0,0.4,0.2,0.4,0.5c0,0.2,0,0.4-0.1,0.7
			s-0.2,0.5-0.3,0.8l-0.1,0.3c0,0,0,0,0,0.1c0,0,0,0.1,0.1,0.2c0.1,0.1,0.1,0.2,0.2,0.3s0.2,0.1,0.3,0.2c0.1,0.1,0.3,0.1,0.5,0.1
			c0.6,0,1.1-0.3,1.5-1s0.6-1.3,0.6-1.8c0-0.3-0.1-0.5-0.2-0.7s-0.2-0.3-0.3-0.4C-4868.7,6.9-4868.8,6.8-4868.8,6.7z"/>
	</g>
</g>
<g>
	<path id="E1-MJMATHI-74" class="st0" d="M87.4,6.7C87.3,6.6,87.3,6.6,87.4,6.7c-0.1-0.1-0.1-0.2-0.1-0.3s0.1-0.2,0.1-0.2l0.1-0.1
		c0.1,0,0.3,0,0.7,0H89L89.3,5c0-0.1,0.1-0.2,0.1-0.4c0-0.2,0.1-0.3,0.1-0.4s0.1-0.2,0.1-0.3c0-0.1,0.1-0.2,0.1-0.2s0.1-0.1,0.1-0.2
		c0-0.1,0.1-0.1,0.2-0.1s0.2,0,0.3,0c0.2,0,0.3,0.1,0.3,0.2c0.1,0.1,0.1,0.2,0.1,0.3c0,0.1,0,0.3-0.1,0.7s-0.2,0.7-0.3,1.1L90.1,6
		c0,0,0.2,0,0.7,0h0.7c0.1,0.1,0.1,0.1,0.1,0.2c0,0.2-0.1,0.4-0.2,0.5h-1.5l-0.5,2c-0.4,1.5-0.5,2.3-0.5,2.4c0,0.4,0.1,0.6,0.4,0.6
		s0.6-0.2,0.9-0.5s0.6-0.7,0.7-1.2c0-0.1,0-0.1,0.1-0.1c0,0,0.1,0,0.2,0h0.1c0.1,0,0.2,0,0.2,0.1c0,0,0,0.1,0,0.2
		c0,0.1-0.1,0.3-0.3,0.5s-0.3,0.4-0.5,0.7c-0.2,0.2-0.4,0.4-0.7,0.6c-0.3,0.2-0.6,0.2-0.8,0.2c-0.3,0-0.5-0.1-0.8-0.2
		c-0.3-0.1-0.4-0.4-0.5-0.7c0-0.1,0-0.2,0-0.4v-0.3l0.5-2c0.3-1.3,0.5-2,0.5-2s-0.2,0-0.7,0L87.4,6.7L87.4,6.7z"/>
</g>
<g>
	<path id="E1-MJMAIN-2B" class="st0" d="M95.9,8.7c0,0,0-0.1,0-0.2c0-0.1,0.1-0.2,0.2-0.3h4.2V6.1V4c0.1-0.1,0.2-0.2,0.3-0.2
		c0.1,0,0.2,0.1,0.3,0.2v4.2h4.2c0.1,0.1,0.2,0.2,0.2,0.3s-0.1,0.2-0.2,0.3h-4.2V13c-0.1,0.1-0.2,0.2-0.3,0.2l0,0l0,0
		c-0.1,0-0.2-0.1-0.3-0.2V8.8h-4.2c-0.1-0.1-0.2-0.2-0.2-0.3V8.7z"/>
</g>
<g transform="translate(7659,0)">
	<g>
		<path id="E1-MJMATHI-3D5" class="st0" d="M-7544.2,2.4c0-0.1,0.1-0.1,0.2-0.1h0.1h0.2c0.1,0.1,0.1,0.1,0.1,0.1
			c0,0.1-0.1,0.6-0.4,1.7c-0.1,0.3-0.1,0.5-0.2,0.8s-0.1,0.5-0.2,0.6l-0.1,0.2c0,0,0,0,0.1,0s0.2,0,0.4,0.1c0.2,0.1,0.4,0.1,0.7,0.2
			c0.4,0.2,0.7,0.5,1,0.8c0.3,0.4,0.4,0.8,0.4,1.4s-0.1,1-0.4,1.5s-0.6,0.9-1.1,1.2s-0.9,0.6-1.4,0.8s-0.9,0.3-1.3,0.3h-0.1
			l-0.3,1.3c-0.1,0.2-0.1,0.5-0.2,0.8s-0.1,0.5-0.2,0.5c0,0.1-0.1,0.1-0.2,0.1h-0.1c-0.2,0-0.3,0-0.3-0.1c0,0,0.1-0.5,0.3-1.3
			l0.3-1.3c0,0,0,0-0.1,0c0,0-0.1,0-0.3,0s-0.3-0.1-0.6-0.2s-0.5-0.3-0.8-0.4c-0.2-0.2-0.4-0.4-0.6-0.7s-0.3-0.7-0.3-1.1
			c0-0.6,0.2-1.1,0.5-1.6s0.7-0.9,1.1-1.2s0.9-0.5,1.4-0.7s0.9-0.3,1.2-0.3c0,0,0.1,0,0.1-0.1l0.4-1.7
			C-7544.3,3-7544.2,2.5-7544.2,2.4z M-7548.2,9.9c0,0.3,0.1,0.6,0.2,0.8s0.3,0.4,0.5,0.5s0.4,0.2,0.5,0.3c0.1,0,0.3,0.1,0.5,0.1
			h0.1l1.3-5.3c0,0-0.1,0-0.2,0s-0.2,0-0.4,0.1c-0.2,0.1-0.4,0.1-0.6,0.2s-0.4,0.2-0.6,0.4c-0.2,0.2-0.4,0.4-0.6,0.6
			c-0.2,0.3-0.3,0.6-0.5,0.9C-7548.1,9.2-7548.2,9.6-7548.2,9.9z M-7542.9,8.1c0-0.4-0.1-0.7-0.2-0.9c-0.1-0.3-0.3-0.4-0.6-0.5
			c-0.2-0.1-0.4-0.2-0.5-0.2s-0.3-0.1-0.3-0.1l0,0l-0.6,2.6l-0.7,2.6l0,0c0.1,0,0.2,0,0.4-0.1c0.2-0.1,0.4-0.1,0.6-0.2
			c0.4-0.2,0.7-0.4,1-0.7s0.5-0.6,0.6-1c0.1-0.3,0.2-0.6,0.3-0.9C-7543,8.5-7542.9,8.3-7542.9,8.1z"/>
	</g>
</g>
<g>
	<path id="E1-MJMAIN-29" class="st0" d="M125.3,1.6L125.3,1.6c0.1,0,0.1,0,0.2,0h0.2l0.4,0.3c0.9,0.8,1.5,1.8,1.9,3
		c0.4,1.2,0.6,2.4,0.6,3.7c0,0.6,0,1.2-0.1,1.8s-0.2,1.1-0.3,1.5s-0.3,0.8-0.5,1.2s-0.4,0.7-0.5,0.9s-0.3,0.5-0.6,0.7
		c-0.3,0.3-0.4,0.4-0.4,0.5s-0.2,0.1-0.3,0.3c0,0,0,0-0.1,0.1h-0.2c-0.1,0-0.1,0-0.2,0h-0.1v-0.1c0,0,0.1-0.1,0.2-0.2
		c1.4-1.5,2.2-3.7,2.2-6.6s-0.7-5.1-2.2-6.6c-0.1-0.1-0.1-0.2-0.2-0.2C125.2,1.7,125.2,1.6,125.3,1.6z"/>
</g>
<g>
	<path id="E1-MJMAIN-2C" class="st0" d="M131,11.5c0,0,0-0.1,0-0.3s0.1-0.4,0.2-0.6c0.1-0.2,0.3-0.3,0.6-0.3s0.5,0.1,0.7,0.3
		s0.3,0.6,0.3,1.2c0,0.3,0,0.6-0.1,0.9s-0.2,0.6-0.3,0.8s-0.2,0.4-0.4,0.6c-0.1,0.2-0.2,0.3-0.3,0.4c-0.1,0.1-0.2,0.1-0.2,0.1
		s-0.1,0-0.2-0.1c-0.1-0.1-0.1-0.1-0.1-0.2c0,0,0.1-0.1,0.2-0.2c0.1-0.1,0.2-0.3,0.3-0.4c0.1-0.2,0.3-0.4,0.4-0.7
		c0.1-0.3,0.2-0.6,0.2-1v-0.2l0,0c0,0,0,0-0.1,0h-0.1H132c-0.1,0-0.1,0-0.2,0c-0.3,0-0.5-0.1-0.6-0.2L131,11.5z"/>
</g>
<g>
	<path id="E1-MJMATHI-79" class="st0" d="M150.3,8c0-0.1,0.1-0.4,0.2-0.7s0.4-0.6,0.7-1c0.3-0.3,0.7-0.5,1-0.5
		c0.4,0,0.7,0.1,0.9,0.3c0.2,0.2,0.4,0.5,0.4,0.9c0,0.2,0,0.3,0,0.3s-0.1,0.2-0.2,0.6c-0.1,0.4-0.3,0.8-0.5,1.4
		c-0.2,0.5-0.2,0.9-0.2,1.2c0,0.4,0.1,0.7,0.2,0.8s0.3,0.2,0.6,0.3c0.2,0,0.4-0.1,0.6-0.2c0.2-0.1,0.3-0.2,0.4-0.3
		c0.1-0.1,0.2-0.3,0.4-0.5c0,0,0-0.1,0.1-0.3c0-0.2,0.1-0.5,0.2-0.8s0.2-0.7,0.3-1c0.4-1.4,0.5-2.1,0.6-2.2c0.1-0.3,0.3-0.4,0.6-0.4
		c0.1,0,0.2,0,0.3,0.1s0.1,0.1,0.2,0.2v0.1c0,0.1-0.2,1.1-0.7,2.9s-0.7,2.8-0.8,3c-0.3,0.8-0.7,1.4-1.4,1.8
		c-0.6,0.5-1.3,0.7-1.9,0.7c-0.4,0-0.8-0.1-1.1-0.3s-0.5-0.5-0.5-0.9c0-0.2,0-0.4,0.1-0.5s0.2-0.2,0.3-0.3s0.2-0.1,0.3-0.1
		s0.2,0,0.2,0c0.4,0,0.6,0.2,0.6,0.6c0,0.2-0.1,0.3-0.2,0.5c-0.1,0.1-0.2,0.2-0.3,0.3c-0.1,0-0.2,0.1-0.2,0.1l0,0
		c0,0,0.1,0.1,0.3,0.2c0.2,0.1,0.3,0.1,0.5,0.1h0.1c0.2,0,0.3,0,0.4,0c0.3-0.1,0.6-0.3,0.8-0.5c0.3-0.3,0.5-0.6,0.6-0.9
		c0.1-0.3,0.2-0.6,0.3-0.8s0.1-0.4,0.1-0.4l-0.1,0.1c-0.1,0-0.1,0.1-0.3,0.2s-0.2,0.1-0.4,0.2c-0.2,0-0.4,0.1-0.5,0.1
		c-0.4,0-0.8-0.1-1.1-0.3s-0.5-0.5-0.6-1c0-0.1,0-0.2,0-0.4c0-0.5,0.2-1.2,0.5-2.1s0.5-1.4,0.5-1.6l0,0c0-0.1,0-0.1,0-0.2
		c0,0,0-0.1-0.1-0.1s-0.1-0.1-0.2-0.1h-0.1c-0.2,0-0.4,0.1-0.6,0.3c-0.2,0.2-0.3,0.4-0.4,0.6c-0.1,0.2-0.2,0.4-0.2,0.6
		c-0.1,0.2-0.1,0.3-0.1,0.3s-0.1,0-0.2,0h-0.2C150.3,8.1,150.3,8.1,150.3,8z"/>
</g>
<g>
	<path id="E1-MJMAIN-3D_00000124854051189970567680000011731242018655872136_" class="st0" d="M161.6,7.2c0-0.1,0.1-0.2,0.2-0.3h8.9
		c0.1,0.1,0.2,0.2,0.2,0.3c0,0.1-0.1,0.2-0.2,0.3h-4.4h-4.4C161.7,7.4,161.6,7.3,161.6,7.2z M161.6,9.9c0-0.1,0.1-0.2,0.2-0.3h8.9
		c0.1,0.1,0.2,0.2,0.2,0.3s-0.1,0.2-0.2,0.3h-8.9C161.7,10.1,161.6,10,161.6,9.9z"/>
</g>
<g transform="translate(12426,0)">
	<g>
		<path id="E1-MJMATHI-41_00000104687734612307776950000009735220441530526898_" class="st0" d="M-12247.6,11c0,0.2,0.2,0.4,0.6,0.4
			c0.2,0,0.3,0.1,0.3,0.2c0,0,0,0.1,0,0.2c0,0.1-0.1,0.2-0.1,0.3c0,0-0.1,0.1-0.2,0.1c0,0-0.1,0-0.2,0s-0.3,0-0.5,0s-0.5,0-0.9,0
			c-0.7,0-1.1,0-1.3,0h-0.1c-0.1-0.1-0.1-0.1-0.1-0.2c0-0.3,0.1-0.4,0.2-0.5h0.2c0.7,0,1.1-0.3,1.4-0.7c0.1-0.1,0.9-1.5,2.5-4.2
			c1.6-2.8,2.5-4.2,2.5-4.2c0.1-0.1,0.2-0.2,0.3-0.2h0.1h0.2c0.1,0.1,0.1,0.1,0.1,0.1l0.4,4.5c0.3,3,0.4,4.5,0.4,4.5
			c0,0.1,0.3,0.2,0.9,0.2c0.2,0,0.3,0,0.3,0.1c0,0,0,0.1,0,0.2c0,0.1-0.1,0.2-0.1,0.3c0,0-0.1,0-0.2,0.1c0,0-0.1,0-0.2,0
			c-0.1,0-0.3,0-0.5,0c-0.3,0-0.6,0-1,0c-0.9,0-1.4,0-1.7,0h-0.2c-0.1-0.1-0.1-0.1-0.1-0.1s0-0.1,0-0.3c0-0.1,0.1-0.2,0.1-0.2h0.1
			h0.3c0.5,0,0.8-0.1,0.9-0.2l-0.2-2.1h-3.3l-0.5,0.8C-12247.4,10.5-12247.6,10.9-12247.6,11z M-12243.3,8.4c0-0.1-0.1-0.8-0.2-2.2
			s-0.2-2-0.2-2l-0.4,0.6c-0.1,0.3-0.4,0.7-0.9,1.5l-1.3,2.1h1.4C-12243.8,8.4-12243.3,8.4-12243.3,8.4z"/>
	</g>
	<path id="E1-MJMATHI-79_00000178897964577449473050000017616565758993901984_" class="st2" d="M-12240.1,11.5c0-0.1,0-0.2,0.1-0.4
		s0.2-0.4,0.4-0.6c0.2-0.2,0.4-0.3,0.6-0.3c0.2,0,0.4,0.1,0.5,0.2c0.2,0.2,0.2,0.3,0.2,0.5c0,0.1,0,0.2,0,0.2s-0.1,0.2-0.2,0.4
		c-0.1,0.2-0.2,0.5-0.2,0.8c-0.1,0.3-0.2,0.5-0.2,0.7c0,0.2,0,0.4,0.1,0.5c0.1,0.1,0.2,0.2,0.3,0.2s0.2,0,0.3-0.1s0.2-0.1,0.2-0.2
		s0.2-0.2,0.2-0.2c0,0,0-0.1,0-0.2c0-0.1,0.1-0.2,0.1-0.5c0.1-0.2,0.1-0.4,0.2-0.6c0.2-0.8,0.3-1.2,0.3-1.2c0.1-0.2,0.2-0.2,0.3-0.2
		c0.1,0,0.2,0,0.2,0.1s0.1,0.1,0.1,0.1v0.1c0,0.1-0.2,0.7-0.4,1.7c-0.2,1.1-0.4,1.6-0.5,1.7c-0.2,0.4-0.4,0.8-0.8,1.1
		c-0.4,0.2-0.7,0.4-1.1,0.4c-0.2,0-0.5-0.1-0.7-0.2s-0.2-0.3-0.2-0.6c0-0.1,0-0.2,0.1-0.3c0.1-0.1,0.1-0.2,0.2-0.2
		c0.1,0,0.1-0.1,0.2-0.1c0.1,0,0.1,0,0.2,0c0.2,0,0.3,0.1,0.3,0.3c0,0.1,0,0.2-0.1,0.2c-0.1,0.1-0.2,0.2-0.2,0.2h-0.1l0,0
		c0,0,0.1,0.1,0.2,0.1s0.2,0.1,0.2,0.1h0.1c0.1,0,0.2,0,0.2,0c0.2-0.1,0.3-0.2,0.5-0.3c0.2-0.2,0.2-0.3,0.3-0.5s0.2-0.3,0.2-0.5
		c0-0.2,0.1-0.2,0.1-0.2h-0.1c0,0-0.1,0.1-0.2,0.1c-0.1,0-0.2,0.1-0.2,0.1s-0.2,0-0.3,0c-0.2,0-0.5-0.1-0.7-0.2s-0.3-0.3-0.4-0.6
		c0,0,0-0.1,0-0.2c0-0.3,0.1-0.7,0.2-1.2s0.2-0.8,0.2-1l0,0c0-0.1,0-0.1,0-0.1s0,0,0-0.1h-0.1l0,0c-0.2,0-0.2,0.1-0.3,0.2
		c-0.1,0.1-0.2,0.2-0.2,0.3c-0.1,0.1-0.1,0.2-0.2,0.3c0,0.1-0.1,0.2-0.1,0.2s-0.1,0-0.2,0L-12240.1,11.5L-12240.1,11.5z"/>
	<path id="E1-MJMATHI-79_00000041993144296172562850000014769850508705762486_" class="st2" d="M-12201.4,11.5c0-0.1,0-0.2,0.1-0.4
		c0.1-0.2,0.2-0.4,0.4-0.6c0.2-0.2,0.4-0.3,0.6-0.3c0.2,0,0.4,0.1,0.5,0.2c0.2,0.2,0.2,0.3,0.2,0.5c0,0.1,0,0.2,0,0.2
		s-0.1,0.2-0.2,0.4s-0.2,0.5-0.2,0.8c-0.1,0.3-0.2,0.5-0.2,0.7c0,0.2,0,0.4,0.1,0.5c0.1,0.1,0.2,0.2,0.3,0.2s0.2,0,0.3-0.1
		c0.1-0.1,0.2-0.1,0.2-0.2s0.2-0.2,0.2-0.2c0,0,0-0.1,0-0.2c0-0.1,0.1-0.2,0.1-0.5c0.1-0.2,0.1-0.4,0.2-0.6c0.2-0.8,0.3-1.2,0.3-1.2
		c0.1-0.2,0.2-0.2,0.3-0.2c0.1,0,0.2,0,0.2,0.1s0.1,0.1,0.1,0.1v0.1c0,0.1-0.2,0.7-0.4,1.7c-0.2,1.1-0.4,1.6-0.5,1.7
		c-0.2,0.4-0.4,0.8-0.8,1.1c-0.4,0.2-0.7,0.4-1.1,0.4c-0.2,0-0.5-0.1-0.7-0.2s-0.2-0.3-0.2-0.6c0-0.1,0-0.2,0.1-0.3
		c0.1-0.1,0.1-0.2,0.2-0.2s0.1-0.1,0.2-0.1c0.1,0,0.1,0,0.2,0c0.2,0,0.3,0.1,0.3,0.3c0,0.1,0,0.2-0.1,0.2c-0.1,0.1-0.2,0.2-0.2,0.2
		h-0.1l0,0c0,0,0.1,0.1,0.2,0.1s0.2,0.1,0.2,0.1h0.1c0.1,0,0.2,0,0.2,0c0.2-0.1,0.3-0.2,0.5-0.3c0.2-0.2,0.2-0.3,0.3-0.5
		s0.2-0.3,0.2-0.5c0-0.2,0.1-0.2,0.1-0.2h-0.1c0,0-0.1,0.1-0.2,0.1s-0.2,0.1-0.2,0.1c-0.1,0-0.2,0-0.3,0c-0.2,0-0.5-0.1-0.7-0.2
		s-0.3-0.3-0.4-0.6c0,0,0-0.1,0-0.2c0-0.3,0.1-0.7,0.2-1.2s0.2-0.8,0.2-1l0,0c0-0.1,0-0.1,0-0.1s0,0,0-0.1h-0.1l0,0
		c-0.2,0-0.2,0.1-0.3,0.2c-0.1,0.1-0.2,0.2-0.2,0.3c-0.1,0.1-0.1,0.2-0.2,0.3c0,0.1-0.1,0.2-0.1,0.2s-0.1,0-0.2,0L-12201.4,11.5
		L-12201.4,11.5z"/>
	<path id="E1-MJMATHI-79_00000081631707145880896640000006390858414219980938_" class="st2" d="M-12163.6,11.5c0-0.1,0-0.2,0.1-0.4
		s0.2-0.4,0.4-0.6c0.2-0.2,0.4-0.3,0.6-0.3c0.2,0,0.4,0.1,0.5,0.2c0.2,0.2,0.2,0.3,0.2,0.5c0,0.1,0,0.2,0,0.2s-0.1,0.2-0.2,0.4
		s-0.2,0.5-0.2,0.8c-0.1,0.3-0.2,0.5-0.2,0.7c0,0.2,0,0.4,0.1,0.5c0.1,0.1,0.2,0.2,0.3,0.2s0.2,0,0.3-0.1c0.1-0.1,0.2-0.1,0.2-0.2
		s0.2-0.2,0.2-0.2c0,0,0-0.1,0-0.2c0-0.1,0.1-0.2,0.1-0.5c0.1-0.2,0.1-0.4,0.2-0.6c0.2-0.8,0.3-1.2,0.3-1.2c0.1-0.2,0.2-0.2,0.3-0.2
		c0.1,0,0.2,0,0.2,0.1s0.1,0.1,0.1,0.1v0.1c0,0.1-0.2,0.7-0.4,1.7c-0.2,1.1-0.4,1.6-0.5,1.7c-0.2,0.4-0.4,0.8-0.8,1.1
		c-0.4,0.2-0.7,0.4-1.1,0.4c-0.2,0-0.5-0.1-0.7-0.2s-0.2-0.3-0.2-0.6c0-0.1,0-0.2,0.1-0.3c0.1-0.1,0.1-0.2,0.2-0.2
		c0.1,0,0.1-0.1,0.2-0.1s0.1,0,0.2,0c0.2,0,0.3,0.1,0.3,0.3c0,0.1,0,0.2-0.1,0.2c-0.1,0.1-0.2,0.2-0.2,0.2h-0.1l0,0
		c0,0,0.1,0.1,0.2,0.1s0.2,0.1,0.2,0.1h0.1c0.1,0,0.2,0,0.2,0c0.2-0.1,0.3-0.2,0.5-0.3c0.2-0.2,0.2-0.3,0.3-0.5s0.2-0.3,0.2-0.5
		c0-0.2,0.1-0.2,0.1-0.2h-0.1c0,0-0.1,0.1-0.2,0.1s-0.2,0.1-0.2,0.1s-0.2,0-0.3,0c-0.2,0-0.5-0.1-0.7-0.2s-0.3-0.3-0.4-0.6
		c0,0,0-0.1,0-0.2c0-0.3,0.1-0.7,0.2-1.2s0.2-0.8,0.2-1l0,0c0-0.1,0-0.1,0-0.1s0,0,0-0.1h-0.1l0,0c-0.2,0-0.2,0.1-0.3,0.2
		c-0.1,0.1-0.2,0.2-0.2,0.3c-0.1,0.1-0.1,0.2-0.2,0.3c0,0.1-0.1,0.2-0.1,0.2s-0.1,0-0.2,0L-12163.6,11.5L-12163.6,11.5z"/>
</g>
<g transform="translate(13795,0)">
	<g>
		<path id="E1-MJMAIN-73_00000042735182456607195180000010291161996443610028_" class="st0" d="M-13596.3,7.6c0-0.4-0.1-0.7-0.4-1
			s-0.6-0.4-1.1-0.4c-0.3,0-0.6,0.1-0.9,0.2c-0.3,0.2-0.4,0.4-0.4,0.7c0,0,0,0.1,0,0.2s0.1,0.2,0.2,0.3c0.1,0.1,0.3,0.3,0.6,0.3
			c0.2,0,0.4,0.1,0.6,0.1c0.2,0,0.4,0.1,0.6,0.1c0.2,0,0.3,0.1,0.4,0.2c0.2,0.1,0.3,0.2,0.5,0.3s0.3,0.3,0.4,0.6
			c0.1,0.3,0.2,0.6,0.2,0.9c0,0.6-0.2,1-0.5,1.4c-0.4,0.4-0.9,0.6-1.7,0.6h-0.1c-0.5,0-0.9-0.2-1.3-0.5l-0.1,0.1l-0.1,0.1
			c-0.1,0.1-0.1,0.1-0.2,0.2l-0.2,0.1h-0.1h-0.1c0,0-0.1,0-0.1-0.1v-1.1v-0.8c0-0.2,0-0.3,0-0.3l0.1-0.1h0.1c0.1,0,0.2,0,0.2,0.1
			c0,0,0.1,0.1,0.1,0.2c0,0.1,0,0.2,0.1,0.4s0.1,0.4,0.3,0.6c0.3,0.5,0.8,0.7,1.4,0.7c0.9,0,1.4-0.4,1.4-1.1c0-0.3-0.1-0.5-0.3-0.7
			s-0.6-0.4-1.2-0.5s-1-0.2-1.2-0.3c-0.3-0.2-0.6-0.4-0.8-0.6c-0.2-0.3-0.3-0.6-0.3-0.9c0-0.4,0.1-0.7,0.2-0.9
			c0.2-0.3,0.4-0.4,0.6-0.6c0.2-0.1,0.5-0.2,0.7-0.3c0.2,0,0.4-0.1,0.6-0.1h0.2c0.4,0,0.7,0.1,1,0.2l0.2,0.1l0.1-0.1
			c0.1-0.1,0.2-0.2,0.3-0.2h0.1h0.1c0,0,0.1,0,0.1,0.1v1.8l-0.1,0.1h-0.4C-13596.3,7.7-13596.3,7.7-13596.3,7.6z"/>
	</g>
	<g>
		<path id="E1-MJMAIN-69_00000080198212070504032920000015649999286798986136_" class="st0" d="M-13593.9,3.5c0-0.3,0.1-0.5,0.3-0.6
			s0.4-0.2,0.6-0.2c0.2,0,0.4,0.1,0.6,0.2c0.2,0.1,0.2,0.3,0.2,0.6s-0.1,0.5-0.2,0.6c-0.2,0.1-0.4,0.2-0.6,0.2s-0.4-0.1-0.6-0.2
			C-13593.9,4-13593.9,3.8-13593.9,3.5z M-13591.5,12c-0.1,0-0.6,0-1.4,0c-0.1,0-0.3,0-0.5,0s-0.5,0-0.7,0h-0.3h-0.1v-0.6h0.2
			c0.3,0,0.5,0,0.7,0c0.1,0,0.1-0.1,0.2-0.2s0-0.3,0-0.6V9.2V8c0-0.5,0-0.8,0-0.9s-0.1-0.2-0.2-0.3c-0.1-0.1-0.3-0.1-0.7-0.1h-0.2
			V6.4c0-0.2,0-0.3,0-0.3h0.1c0.1,0,0.2,0,0.4,0s0.3,0,0.5,0s0.3,0,0.5,0s0.3,0,0.4,0c0.1,0,0.1,0,0.2,0l0,0v5.3
			c0,0.1,0.1,0.1,0.2,0.2c0.1,0,0.2,0,0.5,0.1h0.3V12H-13591.5z"/>
	</g>
	<g>
		<path id="E1-MJMAIN-6E_00000175312510158059939970000014641730086917310620_" class="st0" d="M-13590.4,11.4h0.2
			c0.4,0,0.6-0.1,0.7-0.2v-0.1c0-0.1,0-0.2,0-0.3s0-0.3,0-0.4s0-0.3,0-0.5s0-0.4,0-0.6c0-0.3,0-0.6,0-0.9c0-0.3,0-0.6,0-0.8V7.3
			c0-0.2-0.1-0.3-0.2-0.3s-0.3-0.1-0.6-0.1h-0.3V6.6c0-0.2,0-0.3,0-0.3h0.1c0.1,0,0.2,0,0.4,0s0.3,0,0.5,0s0.3,0,0.5,0s0.3,0,0.4,0
			s0.1,0,0.2,0l0,0v0.6c0,0.4,0,0.5,0,0.5s0,0,0.1-0.1c0,0,0.1-0.1,0.2-0.2s0.2-0.2,0.3-0.3s0.2-0.2,0.4-0.3
			c0.2-0.1,0.3-0.2,0.5-0.2s0.4-0.1,0.7-0.1c1.1,0,1.6,0.6,1.8,1.6c0,0.1,0,0.7,0,1.9v1.2c0,0.4,0,0.6,0,0.6s0.1,0.1,0.2,0.1
			c0.2,0,0.4,0,0.7,0h0.2V12h-0.1h-0.3c-0.2,0-0.4,0-0.7,0s-0.4,0-0.5,0c-1,0-1.5,0-1.6,0h-0.1v-0.6h0.2c0.6,0,0.8-0.1,0.8-0.2
			c0,0,0-0.7,0-1.9c0-1.3,0-1.9,0-2c-0.1-0.3-0.1-0.5-0.3-0.6c-0.1-0.1-0.2-0.2-0.3-0.2s-0.2,0-0.4,0c-0.4,0-0.8,0.2-1.1,0.5
			s-0.4,0.5-0.5,0.8c-0.1,0.3-0.1,0.6-0.1,1.2v0.9v0.8c0,0.3,0,0.5,0,0.6s0,0.2,0,0.2l0.1,0.1c0.2,0,0.4,0,0.7,0h0.2V12h-0.1h-0.3
			c-0.2,0-0.5,0-0.7,0c-0.3,0-0.4,0-0.5,0c-1,0-1.5,0-1.6,0h-0.1v-0.6H-13590.4z"/>
	</g>
</g>
<g>
	<path id="E1-MJMAIN-28_00000174574562800418840600000002645900275778053560_" class="st0" d="M213.1,8.5c0-0.6,0-1.2,0.1-1.8
		s0.2-1.1,0.3-1.5s0.3-0.8,0.5-1.2s0.4-0.7,0.5-0.9s0.3-0.5,0.6-0.7c0.3-0.3,0.4-0.4,0.5-0.5c0-0.1,0.2-0.2,0.3-0.3h0.2h0.1
		c0.1,0,0.2,0,0.2,0.1c0,0-0.1,0.1-0.2,0.3s-0.3,0.4-0.6,0.7c-0.2,0.3-0.5,0.7-0.7,1.2s-0.4,1.1-0.6,1.9c-0.2,0.8-0.2,1.7-0.2,2.7
		s0.1,1.9,0.2,2.7c0.2,0.8,0.3,1.4,0.6,1.9c0.2,0.5,0.5,0.9,0.7,1.2s0.4,0.6,0.6,0.7c0.2,0.2,0.2,0.3,0.2,0.3c0,0.1-0.1,0.1-0.2,0.1
		l0,0H216l-0.4-0.3c-0.9-0.8-1.5-1.8-1.9-3C213.3,11,213.1,9.8,213.1,8.5z"/>
</g>
<g transform="translate(15414,0)">
	<g>
		<path id="E1-MJMATHI-3C9_00000067935288818374199890000017811072258977508769_" class="st0" d="M-15189.9,6.7
			c0-0.2,0.1-0.4,0.3-0.6s0.4-0.3,0.6-0.3c0.2,0,0.3,0.1,0.5,0.3c0.1,0.2,0.2,0.5,0.2,0.8s-0.1,0.7-0.2,1.2
			c-0.1,0.5-0.3,1.1-0.5,1.7s-0.6,1.2-1,1.6s-0.9,0.7-1.5,0.7c-0.7,0-1.3-0.4-1.5-1.1c0,0,0,0-0.1,0.1c-0.5,0.7-1.2,1-1.9,1
			c-1,0-1.5-0.7-1.5-2.1c0-0.8,0.2-1.7,0.6-2.6c0.4-0.9,0.7-1.4,0.9-1.5c0.1-0.1,0.2-0.1,0.3,0s0.2,0.1,0.2,0.3
			c0,0.1-0.1,0.3-0.3,0.5c-0.2,0.3-0.4,0.6-0.6,1c-0.2,0.4-0.4,0.9-0.4,1.4c0,0.1,0,0.2,0,0.3c0,0.6,0.1,1,0.3,1.2s0.5,0.3,0.8,0.3
			c0.5,0,1-0.2,1.4-0.7l0.1-0.1V9.8c0-1.3,0.3-2,0.9-2c0.3,0,0.4,0.2,0.4,0.5c0,0.2,0,0.4-0.1,0.7s-0.2,0.5-0.3,0.8l-0.1,0.3
			c0,0,0,0,0,0.1c0,0,0,0.1,0.1,0.2c0.1,0.1,0.1,0.2,0.2,0.3c0.1,0.1,0.2,0.1,0.3,0.2c0.1,0.1,0.3,0.1,0.5,0.1c0.6,0,1.1-0.3,1.5-1
			s0.6-1.3,0.6-1.8c0-0.3-0.1-0.5-0.2-0.7c-0.1-0.2-0.2-0.3-0.3-0.4C-15189.9,6.9-15189.9,6.8-15189.9,6.7z"/>
	</g>
</g>
<g>
	<path id="E1-MJMATHI-74_00000166676283959300660680000006616134743800192928_" class="st0" d="M232.5,6.7c-0.1-0.1-0.1-0.1-0.1-0.1
		s0-0.1,0-0.2s0.1-0.2,0.1-0.2l0.1-0.1c0.1,0,0.3,0,0.7,0h0.7l0.3-1.1c0-0.1,0.1-0.2,0.1-0.4s0.1-0.3,0.1-0.4s0.1-0.2,0.1-0.3
		c0-0.1,0.1-0.2,0.1-0.2s0.1-0.1,0.1-0.2c0-0.1,0.1-0.1,0.2-0.1s0.2,0,0.3,0c0.2,0,0.3,0.1,0.3,0.2c0.1,0.1,0.1,0.2,0.1,0.3
		c0,0.1,0,0.3-0.1,0.7s-0.2,0.7-0.3,1.1L235.2,6c0,0,0.2,0,0.7,0h0.7c0.1,0.1,0.1,0.1,0.1,0.2c0,0.2-0.1,0.4-0.2,0.5H235l-0.5,2
		c-0.4,1.5-0.5,2.3-0.5,2.4c0,0.4,0.1,0.6,0.4,0.6c0.3,0,0.6-0.2,0.9-0.5c0.3-0.3,0.6-0.7,0.7-1.2c0-0.1,0-0.1,0.1-0.1
		c0,0,0.1,0,0.2,0h0.1c0.1,0,0.2,0,0.2,0.1c0,0,0,0.1,0,0.2c0,0.1-0.1,0.3-0.3,0.5s-0.3,0.4-0.5,0.7c-0.2,0.2-0.4,0.4-0.7,0.6
		c-0.3,0.2-0.6,0.2-0.8,0.2c-0.3,0-0.5-0.1-0.8-0.2c-0.3-0.1-0.4-0.4-0.5-0.7c0-0.1,0-0.2,0-0.4v-0.3l0.5-2c0.3-1.3,0.5-2,0.5-2
		s-0.2,0-0.7,0L232.5,6.7L232.5,6.7z"/>
</g>
<g>
	<path id="E1-MJMAIN-2B_00000034798353784956763320000016268132135792029611_" class="st0" d="M241,8.7c0,0,0-0.1,0-0.2
		c0-0.1,0.1-0.2,0.2-0.3h4.2V6.1V4c0.1-0.1,0.2-0.2,0.3-0.2s0.2,0.1,0.3,0.2v4.2h4.2c0.1,0.1,0.2,0.2,0.2,0.3s-0.1,0.2-0.2,0.3H246
		V13c-0.1,0.1-0.2,0.2-0.3,0.2l0,0l0,0c-0.1,0-0.2-0.1-0.3-0.2V8.8h-4.2c-0.1-0.1-0.2-0.2-0.2-0.3V8.7z"/>
</g>
<g transform="translate(18073,0)">
	<g>
		<path id="E1-MJMATHI-3D5_00000158013640790795957220000011976228909388283807_" class="st0" d="M-17813.1,2.4
			c0-0.1,0.1-0.1,0.2-0.1h0.1h0.2c0.1,0.1,0.1,0.1,0.1,0.1c0,0.1-0.1,0.6-0.4,1.7c-0.1,0.3-0.1,0.5-0.2,0.8s-0.1,0.5-0.2,0.6
			l-0.1,0.2c0,0,0,0,0.1,0s0.2,0,0.4,0.1c0.2,0.1,0.4,0.1,0.7,0.2c0.4,0.2,0.7,0.5,1,0.8c0.3,0.4,0.4,0.8,0.4,1.4s-0.1,1-0.4,1.5
			s-0.6,0.9-1.1,1.2c-0.4,0.3-0.9,0.6-1.4,0.8s-0.9,0.3-1.3,0.3h-0.1l-0.3,1.3c-0.1,0.2-0.1,0.5-0.2,0.8s-0.1,0.5-0.2,0.5
			c0,0.1-0.1,0.1-0.2,0.1h-0.1c-0.2,0-0.3,0-0.3-0.1c0,0,0.1-0.5,0.3-1.3l0.3-1.3c0,0,0,0-0.1,0c0,0-0.1,0-0.3,0
			c-0.1,0-0.3-0.1-0.6-0.2c-0.3-0.1-0.5-0.3-0.8-0.4c-0.2-0.2-0.4-0.4-0.6-0.7s-0.3-0.7-0.3-1.1c0-0.6,0.2-1.1,0.5-1.6
			s0.7-0.9,1.1-1.2s0.9-0.5,1.4-0.7s0.9-0.3,1.2-0.3c0,0,0.1,0,0.1-0.1l0.4-1.7C-17813.2,3-17813.1,2.5-17813.1,2.4z M-17817.1,9.9
			c0,0.3,0.1,0.6,0.2,0.8s0.3,0.4,0.5,0.5s0.4,0.2,0.5,0.3c0.1,0,0.3,0.1,0.5,0.1h0.1l1.3-5.3c0,0-0.1,0-0.2,0s-0.2,0-0.4,0.1
			c-0.2,0.1-0.4,0.1-0.6,0.2s-0.4,0.2-0.6,0.4c-0.2,0.2-0.4,0.4-0.6,0.6c-0.2,0.3-0.3,0.6-0.5,0.9
			C-17817,9.2-17817.1,9.6-17817.1,9.9z M-17811.8,8.1c0-0.4-0.1-0.7-0.2-0.9s-0.3-0.4-0.6-0.5s-0.4-0.2-0.5-0.2s-0.2-0.1-0.3-0.1
			l0,0l-0.6,2.6l-0.7,2.6l0,0c0.1,0,0.2,0,0.4-0.1c0.2-0.1,0.4-0.1,0.6-0.2c0.4-0.2,0.7-0.4,1-0.7s0.5-0.6,0.6-1s0.2-0.6,0.3-0.9
			C-17811.8,8.5-17811.8,8.3-17811.8,8.1z"/>
	</g>
</g>
<g>
	<path id="E1-MJMAIN-29_00000078738604148809439950000006973839176587406981_" class="st0" d="M269.6,1.6L269.6,1.6
		c0.1,0,0.1,0,0.2,0h0.2l0.4,0.3c0.9,0.8,1.5,1.8,1.9,3s0.6,2.4,0.6,3.7c0,0.6,0,1.2-0.1,1.8s-0.2,1.1-0.3,1.5
		c-0.1,0.4-0.3,0.8-0.5,1.2s-0.4,0.7-0.5,0.9s-0.3,0.5-0.6,0.7c-0.3,0.3-0.4,0.4-0.4,0.5s-0.2,0.1-0.3,0.3c0,0,0,0-0.1,0.1h-0.2
		c-0.1,0-0.1,0-0.2,0s-0.1,0-0.1,0v-0.1c0,0,0.1-0.1,0.2-0.2c1.4-1.5,2.2-3.7,2.2-6.6s-0.7-5.1-2.2-6.6c-0.1-0.1-0.1-0.2-0.2-0.2
		C269.6,1.7,269.6,1.6,269.6,1.6z"/>
</g>
</svg>
